<svg width="689" height="94" viewBox="0 0 689 94" fill="none" xmlns="http://www.w3.org/2000/svg">
<g filter="url(#filter0_b_1_279)">
<path d="M412.701 32.9349C406.81 35.4122 401.821 39.6368 398.407 45.0386C394.993 50.4405 393.317 56.7596 393.607 63.1435C393.897 69.5273 396.138 75.6686 400.028 80.7388C403.918 85.809 409.269 89.564 415.36 91.4972C421.451 93.4304 427.989 93.4488 434.091 91.5498C440.192 89.6509 445.565 85.926 449.483 80.8778C453.401 75.8296 455.677 69.701 456.003 63.3189C456.328 56.9368 454.689 50.6083 451.305 45.1873L443.886 49.8183C446.323 53.7214 447.503 58.2779 447.269 62.873C447.034 67.4682 445.396 71.8808 442.574 75.5155C439.753 79.1502 435.885 81.8321 431.492 83.1993C427.099 84.5666 422.392 84.5533 418.006 83.1614C413.621 81.7695 409.767 79.0659 406.967 75.4154C404.166 71.7649 402.553 67.3431 402.344 62.7467C402.135 58.1504 403.341 53.6006 405.8 49.7113C408.258 45.8219 411.85 42.7802 416.091 40.9966L412.701 32.9349Z" fill="#E2E2E2"/>
<path d="M447.802 15.7406C447.802 11.9197 442.69 6.74357 439.856 4.83395C437.023 2.92433 433.801 1.66364 430.423 1.14207C427.044 0.620502 423.592 0.850962 420.313 1.81696C417.034 2.78295 414.009 4.4606 411.456 6.72985C408.902 8.9991 406.882 11.8039 405.541 14.9434C404.199 18.0829 403.57 21.4797 403.697 24.8905C403.824 28.3013 404.705 31.642 406.276 34.6733C407.847 37.7047 437.141 91.1759 439.856 93.2494L447.802 93.2494C445.901 91.7979 413.557 33.6021 412.457 31.4801C411.357 29.3582 410.74 27.0198 410.651 24.6322C410.562 22.2446 411.003 19.8669 411.942 17.6692C412.881 15.4715 414.295 13.5082 416.082 11.9197C417.87 10.3312 419.987 9.15689 422.282 8.48069C424.578 7.80449 426.994 7.64317 429.359 8.00827C431.724 8.37336 433.979 9.25585 435.963 10.5926C437.946 11.9293 439.609 13.6872 440.833 15.7406H447.802Z" fill="#E2E2E2"/>
<path d="M45.8574 22.0635C53.6655 22.0635 60.4822 25.7817 64.944 31.4829L82.2954 19.5848C73.8676 8.18239 60.4822 0.869995 45.4856 0.869995C20.326 0.869995 0 21.196 0 46.3556C0 71.5152 20.326 91.8409 45.4856 91.8409C60.7111 91.8409 74.1665 84.3973 82.4184 72.9433V41.2741H47.7165V57.7579H67.0509C62.9609 65.3182 55.0289 70.3996 45.8574 70.3996C32.472 70.3996 21.6893 59.617 21.6893 46.2316C21.6893 32.8462 32.472 22.0635 45.8574 22.0635Z" fill="#E2E2E2"/>
<path fill-rule="evenodd" clip-rule="evenodd" d="M94.4898 90.3537H116.055V57.634L136.753 90.3537H160.301L137.992 55.8989C148.527 52.3046 155.963 43.0092 155.963 29.7477C155.963 12.3963 143.446 1.86151 127.581 1.86151H94.4898V90.3537ZM125.598 38.5474H116.055V20.8242H125.598C131.052 20.8242 134.522 24.5423 134.522 29.7477C134.522 34.9532 131.795 38.5474 125.598 38.5474Z" fill="#E2E2E2"/>
<path fill-rule="evenodd" clip-rule="evenodd" d="M253.253 46.3556C253.253 71.5152 232.927 91.8409 207.767 91.8409C182.607 91.8409 162.281 71.5152 162.281 46.3556C162.281 21.196 182.607 0.869995 207.767 0.869995C232.927 0.869995 253.253 21.196 253.253 46.3556ZM183.599 46.2316C183.599 59.617 194.382 70.3996 207.767 70.3996C221.152 70.3996 231.935 59.617 231.935 46.2316C231.935 32.8462 221.152 22.0635 207.767 22.0635C194.382 22.0635 183.599 32.8462 183.599 46.2316Z" fill="#E2E2E2"/>
<path d="M300.461 1.86151L286.332 53.0483L273.814 1.86151H252.248L276.045 90.3537H293.272L308.269 42.3895L323.141 90.3537H340.245L365.281 1.86151H343.839L330.082 53.0483L316.945 1.86151H300.461Z" fill="#E2E2E2"/>
<path d="M634.815 85.1482H688.186V92.7084H627.255V4.21628H634.815V85.1482Z" fill="#E2E2E2"/>
<path d="M688.186 68.4165H651.299V4.21628L643.738 4.21631V75.9768L688.186 75.974V68.4165Z" fill="#E2E2E2"/>
<path d="M488.937 12.5568V4.58879H520.73C525.228 4.58879 529.244 5.64905 532.779 7.76956C536.291 9.86866 539.065 12.8352 541.1 16.6693C543.113 20.5034 544.12 25.0014 544.12 30.1635C544.12 35.3256 543.113 39.8236 541.1 43.6577C539.065 47.4917 536.291 50.469 532.779 52.5896C529.244 54.6886 525.228 55.7382 520.73 55.7382H488.937V47.7702H520.088C523.3 47.7702 526.16 47.0634 528.666 45.6497C531.151 44.236 533.111 42.2226 534.546 39.6094C535.959 36.9748 536.666 33.8262 536.666 30.1635C536.666 26.5008 535.959 23.3521 534.546 20.7176C533.111 18.083 531.151 16.0696 528.666 14.6773C526.16 13.2636 523.3 12.5568 520.088 12.5568H488.937Z" fill="#E2E2E2"/>
<path d="M602.688 4.58525L610.656 4.58879L610.636 68.5692C610.634 73.1975 609.572 77.3294 607.45 80.965C605.349 84.5785 602.382 87.4314 598.547 89.5234C594.712 91.5934 590.213 92.6273 585.051 92.625C579.889 92.6227 575.391 91.5848 571.558 89.5114C567.725 87.416 564.749 84.5605 562.63 80.9451C560.533 77.3076 559.485 73.1748 559.487 68.5465L559.488 4.58217L567.456 4.5857L567.455 67.8889C567.454 71.1948 568.159 74.1373 569.572 76.7166C570.984 79.2738 572.997 81.2913 575.609 82.7691C578.243 84.2249 581.392 84.9536 585.055 84.9552C588.717 84.9568 591.866 84.2309 594.501 82.7775C597.137 81.302 599.151 79.2863 600.544 76.7303C601.959 74.1524 602.667 71.2104 602.669 67.9045L602.688 4.58525Z" fill="#E2E2E2"/>
<path d="M438.827 43.4857H458.407V50.3963H438.827V43.4857Z" fill="#E2E2E2"/>
<path d="M487.201 4.61327H495.264V93.3H487.201V4.61327Z" fill="#E2E2E2"/>
<path d="M61.62 46.941H77.169V73.4318H61.62V46.941Z" fill="#E2E2E2"/>
</g>
<defs>
<filter id="filter0_b_1_279" x="-5.688" y="-4.818" width="699.562" height="103.806" filterUnits="userSpaceOnUse" color-interpolation-filters="sRGB">
<feFlood flood-opacity="0" result="BackgroundImageFix"/>
<feGaussianBlur in="BackgroundImageFix" stdDeviation="2.844"/>
<feComposite in2="SourceAlpha" operator="in" result="effect1_backgroundBlur_1_279"/>
<feBlend mode="normal" in="SourceGraphic" in2="effect1_backgroundBlur_1_279" result="shape"/>
</filter>
</defs>
</svg>
