<svg width="384" height="61" viewBox="0 0 384 61" fill="none" xmlns="http://www.w3.org/2000/svg">
<path d="M18.7004 1.77213H18.5157L18.4613 1.94859L0.853755 59.0932L0.753998 59.417H1.09277H15.0188H15.2013L15.257 59.2432L17.8424 51.1734H35.6436L38.15 59.2411L38.2047 59.417H38.3889H52.2348H52.5736L52.4739 59.0932L34.8663 1.94859L34.8119 1.77213H34.6272H18.7004ZM57.9754 59.1669V59.417H58.2255H80.7152C85.9194 59.417 90.4851 58.0252 93.7539 55.2148C97.028 52.3996 98.9731 48.1845 98.9731 42.5997C98.9731 38.4735 97.9004 35.296 96.1105 32.9538C94.453 30.7848 92.1932 29.3488 89.6405 28.5352C92.3682 27.0408 94.4912 23.7309 94.4912 17.3889C94.4912 12.7246 92.8266 8.81336 89.8383 6.06982C86.8519 3.3281 82.5654 1.77213 77.3538 1.77213H58.2255H57.9754V2.02224V59.1669ZM199.123 1.77213H198.873V2.02224V39.3984C198.873 42.1431 197.993 44.0706 196.605 45.3148C195.213 46.5631 193.278 47.1517 191.12 47.1517C188.962 47.1517 187.027 46.5631 185.634 45.3148C184.247 44.0706 183.366 42.1431 183.366 39.3984V2.02224V1.77213H183.116H169.27H169.02V2.02224V40.919C169.02 47.3552 171.554 52.1313 175.599 55.2922C179.636 58.4469 185.158 59.9772 191.12 59.9772C197.121 59.9772 202.663 58.4471 206.71 55.2924C210.766 52.1315 213.299 47.3552 213.299 40.919V2.02224V1.77213H213.049H199.123ZM257.201 2.02224V1.77213H256.951H220.215H219.965V2.02224V14.2675V14.5176H220.215H231.41V59.1669V59.417H231.66H245.506H245.756V59.1669V14.5176H256.951H257.201V14.2675V2.02224ZM322.145 1.77213H321.895V2.02224V39.3984C321.895 42.1431 321.015 44.0706 319.627 45.3148C318.235 46.5631 316.3 47.1517 314.142 47.1517C311.983 47.1517 310.049 46.5631 308.656 45.3148C307.268 44.0706 306.388 42.1431 306.388 39.3984V2.02224V1.77213H306.138H292.292H292.042V2.02224V40.919C292.042 47.3552 294.576 52.1313 298.621 55.2922C302.658 58.4469 308.18 59.9772 314.142 59.9772C320.143 59.9772 325.685 58.4471 329.732 55.2924C333.787 52.1315 336.321 47.3552 336.321 40.919V2.02224V1.77213H336.071H322.145ZM376.08 17.1217L376.326 17.273L376.44 17.008L381.322 5.7231L381.411 5.51853L381.218 5.40715C377.025 2.98794 372.66 1.29192 365.566 1.29192C359.196 1.29192 353.912 3.14688 350.217 6.32454C346.518 9.50458 344.427 13.9964 344.427 19.2297C344.427 22.9677 345.607 26.3357 348.281 29.03C350.95 31.7195 355.087 33.7164 360.96 34.7625L360.961 34.7626C363.455 35.1981 365.304 36.0047 366.526 37.1498C367.741 38.2881 368.357 39.78 368.357 41.6393C368.357 43.0922 367.785 44.4646 366.669 45.4757C365.552 46.4871 363.875 47.1517 361.645 47.1517C356.037 47.1517 351.528 44.863 347.714 41.8434L347.504 41.6777L347.353 41.8974L340.39 51.9817L340.257 52.1742L340.44 52.3197C345.918 56.6703 352.214 59.8972 362.525 59.8972C376.267 59.8972 383.584 50.5833 383.584 41.0791C383.584 36.6635 382.186 32.5608 379.35 29.3486C376.513 26.1361 372.254 23.8316 366.563 22.984L366.562 22.9838C364.057 22.6259 362.447 22.0339 361.468 21.2731C360.505 20.5251 360.134 19.6011 360.134 18.5093C360.134 16.9919 360.793 15.8454 361.861 15.0702C362.938 14.289 364.443 13.8774 366.126 13.8774C369.982 13.8774 372.977 15.2121 376.08 17.1217ZM21.7611 37.9477L26.8585 21.5311L31.731 37.9477H21.7611ZM74.7927 23.7816H72.4017V12.8369H74.7927C76.4915 12.8369 77.8227 13.4335 78.7307 14.4172C79.641 15.4033 80.145 16.7996 80.145 18.4293C80.145 20.1822 79.6395 21.5117 78.7385 22.4033C77.8371 23.2954 76.5069 23.7816 74.7927 23.7816ZM78.1541 48.2722H72.4017V34.9264H78.1541C80.0188 34.9264 81.633 35.5471 82.7801 36.6847C83.9263 37.8214 84.6269 39.4947 84.6269 41.6393C84.6269 43.8659 83.9253 45.5164 82.7832 46.611C81.639 47.7075 80.0254 48.2722 78.1541 48.2722ZM133.423 60.3774C149.808 60.3774 163.046 47.1398 163.046 30.7546C163.046 14.3695 149.808 1.13185 133.423 1.13185C117.038 1.13185 103.8 14.3695 103.8 30.7546C103.8 47.1398 117.038 60.3774 133.423 60.3774ZM133.423 46.0312C124.917 46.0312 118.066 39.1802 118.066 30.6746C118.066 22.169 124.917 15.318 133.423 15.318C141.929 15.318 148.78 22.169 148.78 30.6746C148.78 39.1802 141.929 46.0312 133.423 46.0312Z" stroke="white" stroke-opacity="0.5" stroke-width="0.500216"/>
</svg>
