<svg width="256" height="66" viewBox="0 0 256 66" fill="none" xmlns="http://www.w3.org/2000/svg">
<path d="M39.4553 18.456L39.7013 18.6074L39.816 18.3423L45.1424 6.03035L45.2309 5.82579L45.0378 5.71441C40.4658 3.07666 35.7079 1.22768 27.973 1.22768C21.0272 1.22768 15.268 3.25017 11.2412 6.71283C7.21153 10.1779 4.93265 15.0721 4.93265 20.7753C4.93265 24.8484 6.21856 28.5168 9.13105 31.4515C12.0387 34.3814 16.5463 36.5587 22.952 37.6994L22.9528 37.6996C25.6764 38.1751 27.6976 39.0563 29.0354 40.3098C30.3658 41.5564 31.041 43.1905 31.041 45.2246C31.041 46.8159 30.4139 48.3193 29.1913 49.427C27.9684 50.5349 26.1328 51.2614 23.6944 51.2614C17.5693 51.2614 12.6453 48.7615 8.48148 45.4651L8.27214 45.2993L8.12043 45.519L0.523679 56.5212L0.390765 56.7137L0.573955 56.8592C6.54777 61.6031 13.412 65.1214 24.6549 65.1214C39.6352 65.1214 47.6079 54.9698 47.6079 44.6133C47.6079 39.8007 46.0839 35.3302 42.9938 31.8302C39.9034 28.33 35.2621 25.8179 29.0577 24.8938L29.0562 24.8936C26.3215 24.5029 24.5609 23.8563 23.4876 23.0227C22.4308 22.2018 22.0235 21.1868 22.0235 19.9894C22.0235 18.3263 22.7465 17.0686 23.9177 16.2188C25.097 15.363 26.7437 14.913 28.5842 14.913C32.7969 14.913 36.0683 16.3717 39.4553 18.456ZM93.9101 2.0017V1.75159H93.66H53.5806H53.3305V2.0017V15.3615V15.6116H53.5806H65.8171V64.3474V64.5975H66.0672H81.1734H81.4235V64.3474V15.6116H93.66H93.9101V15.3615V2.0017ZM118.45 1.75159H118.265L118.211 1.92805L99.0005 64.2738L98.9008 64.5975H99.2396H114.433H114.616L114.671 64.4237L117.497 55.6037H136.952L139.691 64.4216L139.746 64.5975H139.93H155.036H155.375L155.275 64.2738L136.065 1.92805L136.011 1.75159H135.826H118.45ZM176.766 64.5975H177.016V64.3474V42.1584L191.137 64.4811L191.21 64.5975H191.348H207.939H208.399L208.149 64.2115L192.604 40.2038C199.967 37.5637 205.133 30.972 205.133 21.6485C205.133 15.4727 202.903 10.4931 199.247 7.05854C195.593 3.6259 190.53 1.75159 184.886 1.75159H161.572H161.322V2.0017V64.3474V64.5975H161.572H176.766ZM254.99 2.0017V1.75159H254.74H214.66H214.41V2.0017V15.3615V15.6116H214.66H226.897V64.3474V64.5975H227.147H242.253H242.503V64.3474V15.6116H254.74H254.99V15.3615V2.0017ZM132.697 41.2197H121.758L127.351 23.2078L132.697 41.2197ZM183.489 27.598H177.016V15.6116H183.489C185.352 15.6116 186.856 16.2451 187.895 17.3048C188.935 18.3652 189.526 19.8711 189.526 21.6485C189.526 23.4411 189.057 24.9213 188.088 25.9522C187.121 26.9803 185.624 27.598 183.489 27.598Z" stroke="white" stroke-opacity="0.5" stroke-width="0.500216"/>
</svg>
