<svg width="540" height="72" viewBox="0 0 540 72" fill="none" xmlns="http://www.w3.org/2000/svg">
<mask id="path-1-inside-1_545_332" fill="white">
<path d="M30.491 72C23.8244 72 18.291 71.0667 13.891 69.2C9.49102 67.2667 6.15769 64.7667 3.89102 61.7C1.62436 58.6333 0.424355 55.3667 0.291022 51.9C0.291022 51.3667 0.491022 50.9 0.891022 50.5C1.35769 50.0333 1.89102 49.8 2.49102 49.8H15.091C16.0244 49.8 16.7244 49.9667 17.191 50.3C17.7244 50.6333 18.191 51.0667 18.591 51.6C19.1244 52.6 19.8577 53.5667 20.791 54.5C21.791 55.4333 23.0577 56.2 24.591 56.8C26.191 57.3333 28.1577 57.6 30.491 57.6C34.3577 57.6 37.2577 57 39.191 55.8C41.191 54.6 42.191 52.9667 42.191 50.9C42.191 49.4333 41.6577 48.2333 40.591 47.3C39.5244 46.3 37.791 45.4333 35.391 44.7C33.0577 43.9 29.9244 43.1 25.991 42.3C20.9244 41.2333 16.591 39.8667 12.991 38.2C9.45769 36.4667 6.75769 34.2333 4.89102 31.5C3.02436 28.7 2.09102 25.2333 2.09102 21.1C2.09102 17.0333 3.22436 13.4 5.49102 10.2C7.82436 7 11.0577 4.5 15.191 2.7C19.3244 0.899997 24.2244 -3.8147e-06 29.891 -3.8147e-06C34.491 -3.8147e-06 38.5244 0.599996 41.991 1.8C45.5244 3 48.491 4.6 50.891 6.59999C53.291 8.6 55.091 10.7333 56.291 13C57.5577 15.2 58.2244 17.3667 58.291 19.5C58.291 20.0333 58.091 20.5333 57.691 21C57.291 21.4 56.791 21.6 56.191 21.6H42.991C42.2577 21.6 41.6244 21.4667 41.091 21.2C40.5577 20.9333 40.091 20.5 39.691 19.9C39.291 18.4333 38.2244 17.1667 36.491 16.1C34.8244 14.9667 32.6244 14.4 29.891 14.4C26.9577 14.4 24.6577 14.9333 22.991 16C21.391 17 20.591 18.5667 20.591 20.7C20.591 22.0333 21.0244 23.2 21.891 24.2C22.8244 25.2 24.3244 26.0667 26.391 26.8C28.5244 27.5333 31.4244 28.3 35.091 29.1C41.1577 30.2333 46.0577 31.6667 49.791 33.4C53.5244 35.0667 56.2577 37.2667 57.991 40C59.7244 42.6667 60.591 46.0333 60.591 50.1C60.591 54.6333 59.291 58.5667 56.691 61.9C54.1577 65.1667 50.6244 67.6667 46.091 69.4C41.5577 71.1333 36.3577 72 30.491 72ZM88.7535 71C88.0202 71 87.4202 70.7667 86.9535 70.3C86.4869 69.8333 86.2535 69.2333 86.2535 68.5V16.7H68.4535C67.7202 16.7 67.1202 16.4667 66.6535 16C66.1869 15.4667 65.9535 14.8667 65.9535 14.2V3.5C65.9535 2.76666 66.1869 2.16666 66.6535 1.7C67.1202 1.23333 67.7202 0.999995 68.4535 0.999995H122.254C122.987 0.999995 123.587 1.23333 124.054 1.7C124.52 2.16666 124.754 2.76666 124.754 3.5V14.2C124.754 14.8667 124.52 15.4667 124.054 16C123.587 16.4667 122.987 16.7 122.254 16.7H104.454V68.5C104.454 69.2333 104.22 69.8333 103.754 70.3C103.287 70.7667 102.687 71 101.954 71H88.7535ZM164.077 72C158.077 72 152.81 71.0333 148.277 69.1C143.81 67.1 140.344 64.0667 137.877 60C135.41 55.8667 134.177 50.6333 134.177 44.3V3.5C134.177 2.76666 134.41 2.16666 134.877 1.7C135.344 1.23333 135.944 0.999995 136.677 0.999995H149.577C150.31 0.999995 150.91 1.23333 151.377 1.7C151.844 2.16666 152.077 2.76666 152.077 3.5V44.2C152.077 48.5333 153.11 51.8 155.177 54C157.31 56.1333 160.277 57.2 164.077 57.2C167.81 57.2 170.71 56.1333 172.777 54C174.91 51.8 175.977 48.5333 175.977 44.2V3.5C175.977 2.76666 176.21 2.16666 176.677 1.7C177.21 1.23333 177.81 0.999995 178.477 0.999995H191.477C192.144 0.999995 192.71 1.23333 193.177 1.7C193.71 2.16666 193.977 2.76666 193.977 3.5V44.3C193.977 50.6333 192.744 55.8667 190.277 60C187.81 64.0667 184.344 67.1 179.877 69.1C175.41 71.0333 170.144 72 164.077 72ZM210.673 71C209.94 71 209.34 70.7667 208.873 70.3C208.406 69.8333 208.173 69.2333 208.173 68.5V3.5C208.173 2.76666 208.406 2.16666 208.873 1.7C209.34 1.23333 209.94 0.999995 210.673 0.999995H237.873C246.473 0.999995 253.24 3 258.173 7C263.173 10.9333 265.673 16.5333 265.673 23.8C265.673 28.5333 264.506 32.5333 262.173 35.8C259.906 39.0667 256.906 41.5333 253.173 43.2L266.973 67.8C267.173 68.2 267.273 68.5667 267.273 68.9C267.273 69.4333 267.04 69.9333 266.573 70.4C266.173 70.8 265.673 71 265.073 71H251.873C250.606 71 249.673 70.7 249.073 70.1C248.473 69.4333 248.04 68.8333 247.773 68.3L236.373 46.3H226.073V68.5C226.073 69.2333 225.84 69.8333 225.373 70.3C224.906 70.7667 224.306 71 223.573 71H210.673ZM226.073 32.2H237.673C240.806 32.2 243.14 31.4333 244.673 29.9C246.273 28.3667 247.073 26.2667 247.073 23.6C247.073 21 246.306 18.9 244.773 17.3C243.306 15.7 240.94 14.9 237.673 14.9H226.073V32.2ZM295.465 71C294.732 71 294.132 70.7667 293.665 70.3C293.199 69.8333 292.965 69.2333 292.965 68.5V16.7H275.165C274.432 16.7 273.832 16.4667 273.365 16C272.899 15.4667 272.665 14.8667 272.665 14.2V3.5C272.665 2.76666 272.899 2.16666 273.365 1.7C273.832 1.23333 274.432 0.999995 275.165 0.999995H328.965C329.699 0.999995 330.299 1.23333 330.765 1.7C331.232 2.16666 331.465 2.76666 331.465 3.5V14.2C331.465 14.8667 331.232 15.4667 330.765 16C330.299 16.4667 329.699 16.7 328.965 16.7H311.165V68.5C311.165 69.2333 310.932 69.8333 310.465 70.3C309.999 70.7667 309.399 71 308.665 71H295.465ZM370.789 72C364.789 72 359.522 71.0333 354.989 69.1C350.522 67.1 347.055 64.0667 344.589 60C342.122 55.8667 340.889 50.6333 340.889 44.3V3.5C340.889 2.76666 341.122 2.16666 341.589 1.7C342.055 1.23333 342.655 0.999995 343.389 0.999995H356.289C357.022 0.999995 357.622 1.23333 358.089 1.7C358.555 2.16666 358.789 2.76666 358.789 3.5V44.2C358.789 48.5333 359.822 51.8 361.889 54C364.022 56.1333 366.989 57.2 370.789 57.2C374.522 57.2 377.422 56.1333 379.489 54C381.622 51.8 382.689 48.5333 382.689 44.2V3.5C382.689 2.76666 382.922 2.16666 383.389 1.7C383.922 1.23333 384.522 0.999995 385.189 0.999995H398.189C398.855 0.999995 399.422 1.23333 399.889 1.7C400.422 2.16666 400.689 2.76666 400.689 3.5V44.3C400.689 50.6333 399.455 55.8667 396.989 60C394.522 64.0667 391.055 67.1 386.589 69.1C382.122 71.0333 376.855 72 370.789 72ZM417.385 71C416.651 71 416.051 70.7667 415.585 70.3C415.118 69.8333 414.885 69.2333 414.885 68.5V3.5C414.885 2.76666 415.118 2.16666 415.585 1.7C416.051 1.23333 416.651 0.999995 417.385 0.999995H445.385C450.918 0.999995 455.718 1.86666 459.785 3.6C463.918 5.26666 467.118 7.8 469.385 11.2C471.718 14.6 472.885 18.9 472.885 24.1C472.885 29.2333 471.718 33.4667 469.385 36.8C467.118 40.1333 463.918 42.6 459.785 44.2C455.718 45.8 450.918 46.6 445.385 46.6H433.485V68.5C433.485 69.2333 433.218 69.8333 432.685 70.3C432.218 70.7667 431.618 71 430.885 71H417.385ZM433.185 32.8H444.885C447.751 32.8 450.018 32.0667 451.685 30.6C453.418 29.1333 454.285 26.9 454.285 23.9C454.285 21.3667 453.551 19.2333 452.085 17.5C450.618 15.7667 448.218 14.9 444.885 14.9H433.185V32.8ZM509.498 72C502.831 72 497.298 71.0667 492.898 69.2C488.498 67.2667 485.165 64.7667 482.898 61.7C480.631 58.6333 479.431 55.3667 479.298 51.9C479.298 51.3667 479.498 50.9 479.898 50.5C480.365 50.0333 480.898 49.8 481.498 49.8H494.098C495.031 49.8 495.731 49.9667 496.198 50.3C496.731 50.6333 497.198 51.0667 497.598 51.6C498.131 52.6 498.865 53.5667 499.798 54.5C500.798 55.4333 502.065 56.2 503.598 56.8C505.198 57.3333 507.165 57.6 509.498 57.6C513.365 57.6 516.265 57 518.198 55.8C520.198 54.6 521.198 52.9667 521.198 50.9C521.198 49.4333 520.665 48.2333 519.598 47.3C518.531 46.3 516.798 45.4333 514.398 44.7C512.065 43.9 508.931 43.1 504.998 42.3C499.931 41.2333 495.598 39.8667 491.998 38.2C488.465 36.4667 485.765 34.2333 483.898 31.5C482.031 28.7 481.098 25.2333 481.098 21.1C481.098 17.0333 482.231 13.4 484.498 10.2C486.831 7 490.065 4.5 494.198 2.7C498.331 0.899997 503.231 -3.8147e-06 508.898 -3.8147e-06C513.498 -3.8147e-06 517.531 0.599996 520.998 1.8C524.531 3 527.498 4.6 529.898 6.59999C532.298 8.6 534.098 10.7333 535.298 13C536.565 15.2 537.231 17.3667 537.298 19.5C537.298 20.0333 537.098 20.5333 536.698 21C536.298 21.4 535.798 21.6 535.198 21.6H521.998C521.265 21.6 520.631 21.4667 520.098 21.2C519.565 20.9333 519.098 20.5 518.698 19.9C518.298 18.4333 517.231 17.1667 515.498 16.1C513.831 14.9667 511.631 14.4 508.898 14.4C505.965 14.4 503.665 14.9333 501.998 16C500.398 17 499.598 18.5667 499.598 20.7C499.598 22.0333 500.031 23.2 500.898 24.2C501.831 25.2 503.331 26.0667 505.398 26.8C507.531 27.5333 510.431 28.3 514.098 29.1C520.165 30.2333 525.065 31.6667 528.798 33.4C532.531 35.0667 535.265 37.2667 536.998 40C538.731 42.6667 539.598 46.0333 539.598 50.1C539.598 54.6333 538.298 58.5667 535.698 61.9C533.165 65.1667 529.631 67.6667 525.098 69.4C520.565 71.1333 515.365 72 509.498 72Z"/>
</mask>
<path d="M13.891 69.2L13.7703 69.4747L13.7739 69.4762L13.891 69.2ZM3.89102 61.7L3.64977 61.8783L3.89102 61.7ZM0.291022 51.9H-0.0092001L-0.00875664 51.9115L0.291022 51.9ZM0.891022 50.5L0.67889 50.2879V50.2879L0.891022 50.5ZM17.191 50.3L17.0167 50.5441L17.0242 50.5495L17.032 50.5544L17.191 50.3ZM18.591 51.6L18.8557 51.4588L18.8449 51.4385L18.831 51.42L18.591 51.6ZM20.791 54.5L20.5788 54.7123L20.5863 54.7193L20.791 54.5ZM24.591 56.8L24.4817 57.0794L24.4889 57.0822L24.4962 57.0846L24.591 56.8ZM39.191 55.8L39.0367 55.5427L39.0328 55.5451L39.191 55.8ZM40.591 47.3L40.3857 47.519L40.3935 47.5258L40.591 47.3ZM35.391 44.7L35.2937 44.9839L35.3034 44.9869L35.391 44.7ZM25.991 42.3L25.9292 42.5936L25.9312 42.594L25.991 42.3ZM12.991 38.2L12.8589 38.4694L12.865 38.4722L12.991 38.2ZM4.89102 31.5L4.64139 31.6664L4.64328 31.6692L4.89102 31.5ZM5.49102 10.2L5.2486 10.0232L5.24621 10.0266L5.49102 10.2ZM15.191 2.7L15.0712 2.42495L15.191 2.7ZM41.991 1.8L41.8929 2.0835L41.8945 2.08406L41.991 1.8ZM50.891 6.59999L51.0831 6.36953L50.891 6.59999ZM56.291 13L56.0257 13.1405L56.031 13.1497L56.291 13ZM58.291 19.5H58.5912L58.5909 19.4906L58.291 19.5ZM57.691 21L57.9032 21.2121L57.9113 21.204L57.9188 21.1952L57.691 21ZM41.091 21.2L40.9569 21.4683L41.091 21.2ZM39.691 19.9L39.4016 19.9789L39.4144 20.0259L39.4414 20.0664L39.691 19.9ZM36.491 16.1L36.3222 16.3483L36.3338 16.3555L36.491 16.1ZM22.991 16L23.15 16.2544L23.1527 16.2527L22.991 16ZM21.891 24.2L21.6642 24.3966L21.6717 24.4047L21.891 24.2ZM26.391 26.8L26.2907 27.0827L26.2935 27.0837L26.391 26.8ZM35.091 29.1L35.027 29.3932L35.0359 29.3949L35.091 29.1ZM49.791 33.4L49.6647 33.6721L49.6687 33.6739L49.791 33.4ZM57.991 40L57.7377 40.1607L57.7395 40.1635L57.991 40ZM56.691 61.9L56.4545 61.7155L56.454 61.7162L56.691 61.9ZM46.091 69.4L46.1982 69.6802L46.091 69.4ZM30.491 71.7C23.8498 71.7 18.3596 70.7699 14.0082 68.9238L13.7739 69.4762C18.2225 71.3635 23.7989 72.3 30.491 72.3V71.7ZM14.0117 68.9253C9.64733 67.0077 6.36074 64.5367 4.13228 61.5217L3.64977 61.8783C5.95464 64.9967 9.33471 67.5257 13.7703 69.4747L14.0117 68.9253ZM4.13228 61.5217C1.89771 58.4985 0.721589 55.289 0.5908 51.8885L-0.00875664 51.9115C0.127121 55.4444 1.351 58.7682 3.64977 61.8783L4.13228 61.5217ZM0.591022 51.9C0.591022 51.4514 0.755627 51.0597 1.10315 50.7121L0.67889 50.2879C0.226416 50.7403 -0.00897813 51.2819 -0.00897813 51.9H0.591022ZM1.10315 50.7121C1.51974 50.2955 1.97892 50.1 2.49102 50.1V49.5C1.80313 49.5 1.19564 49.7711 0.67889 50.2879L1.10315 50.7121ZM2.49102 50.1H15.091V49.5H2.49102V50.1ZM15.091 50.1C15.9977 50.1 16.6238 50.2635 17.0167 50.5441L17.3654 50.0559C16.8249 49.6698 16.051 49.5 15.091 49.5V50.1ZM17.032 50.5544C17.5322 50.867 17.9719 51.2745 18.351 51.78L18.831 51.42C18.4102 50.8589 17.9166 50.3997 17.35 50.0456L17.032 50.5544ZM18.3263 51.7412C18.8757 52.7712 19.628 53.7612 20.5789 54.7121L21.0032 54.2879C20.0874 53.3721 19.3731 52.4288 18.8557 51.4588L18.3263 51.7412ZM20.5863 54.7193C21.6191 55.6832 22.9201 56.4683 24.4817 57.0794L24.7003 56.5206C23.1953 55.9317 21.963 55.1835 20.9957 54.2807L20.5863 54.7193ZM24.4962 57.0846C26.136 57.6312 28.1369 57.9 30.491 57.9V57.3C28.1785 57.3 26.2461 57.0355 24.6859 56.5154L24.4962 57.0846ZM30.491 57.9C34.379 57.9 37.3457 57.2984 39.3492 56.0549L39.0328 55.5451C37.1697 56.7016 34.3364 57.3 30.491 57.3V57.9ZM39.3454 56.0572C41.4219 54.8114 42.491 53.0873 42.491 50.9H41.891C41.891 52.8461 40.9602 54.3886 39.0367 55.5428L39.3454 56.0572ZM42.491 50.9C42.491 49.3503 41.9229 48.0667 40.7886 47.0742L40.3935 47.5258C41.3925 48.3999 41.891 49.5164 41.891 50.9H42.491ZM40.7962 47.0811C39.6802 46.0349 37.8954 45.1515 35.4787 44.4131L35.3034 44.9869C37.6867 45.7151 39.3685 46.5651 40.3858 47.5189L40.7962 47.0811ZM35.4883 44.4162C33.1375 43.6102 29.99 42.8072 26.0508 42.006L25.9312 42.594C29.8587 43.3928 32.9778 44.1898 35.2937 44.9838L35.4883 44.4162ZM26.0528 42.0064C21.002 40.9431 16.6914 39.5825 13.1171 37.9278L12.865 38.4722C16.4907 40.1508 20.8467 41.5236 25.9292 42.5936L26.0528 42.0064ZM13.1231 37.9307C9.62754 36.2158 6.97111 34.0139 5.13876 31.3308L4.64328 31.6692C6.54427 34.4528 9.28784 36.7175 12.8589 38.4693L13.1231 37.9307ZM5.14064 31.3336C3.31364 28.5931 2.39102 25.1877 2.39102 21.1H1.79102C1.79102 25.2789 2.73507 28.8069 4.64141 31.6664L5.14064 31.3336ZM2.39102 21.1C2.39102 17.093 3.50646 13.5207 5.73583 10.3734L5.24621 10.0266C2.94225 13.2793 1.79102 16.9737 1.79102 21.1H2.39102ZM5.73342 10.3767C8.0312 7.22552 11.2195 4.75676 15.3108 2.97505L15.0712 2.42495C10.8959 4.24324 7.61751 6.77448 5.24862 10.0232L5.73342 10.3767ZM15.3108 2.97505C19.398 1.19515 24.2553 0.299996 29.891 0.299996V-0.300004C24.1934 -0.300004 19.2507 0.604842 15.0712 2.42495L15.3108 2.97505ZM29.891 0.299996C34.4657 0.299996 38.4646 0.89679 41.8929 2.08349L42.0892 1.5165C38.5841 0.303203 34.5163 -0.300004 29.891 -0.300004V0.299996ZM41.8945 2.08406C45.3996 3.27446 48.3322 4.85814 50.699 6.83046L51.0831 6.36953C48.6499 4.34185 45.6491 2.72553 42.0875 1.51593L41.8945 2.08406ZM50.699 6.83046C53.0753 8.81078 54.8477 10.9148 56.0259 13.1404L56.5562 12.8596C55.3344 10.5518 53.5067 8.38922 51.0831 6.36953L50.699 6.83046ZM56.031 13.1497C57.2777 15.315 57.9263 17.4339 57.9912 19.5094L58.5909 19.4906C58.5224 17.2994 57.8377 15.085 56.551 12.8503L56.031 13.1497ZM57.991 19.5C57.991 19.9509 57.8242 20.3837 57.4632 20.8048L57.9188 21.1952C58.3579 20.683 58.591 20.1157 58.591 19.5H57.991ZM57.4789 20.7879C57.1388 21.1279 56.7168 21.3 56.191 21.3V21.9C56.8652 21.9 57.4432 21.6721 57.9032 21.2121L57.4789 20.7879ZM56.191 21.3H42.991V21.9H56.191V21.3ZM42.991 21.3C42.2938 21.3 41.7084 21.1733 41.2252 20.9317L40.9569 21.4683C41.5403 21.7601 42.2216 21.9 42.991 21.9V21.3ZM41.2252 20.9317C40.7474 20.6928 40.3177 20.2992 39.9406 19.7336L39.4414 20.0664C39.8643 20.7008 40.368 21.1739 40.9569 21.4683L41.2252 20.9317ZM39.9805 19.8211C39.5544 18.2589 38.424 16.9373 36.6483 15.8445L36.3338 16.3555C38.0247 17.396 39.0276 18.6078 39.4016 19.9789L39.9805 19.8211ZM36.6597 15.8519C34.9284 14.6746 32.6636 14.1 29.891 14.1V14.7C32.5851 14.7 34.7203 15.2587 36.3223 16.3481L36.6597 15.8519ZM29.891 14.1C26.9263 14.1 24.5622 14.6382 22.8293 15.7473L23.1527 16.2527C24.7531 15.2284 26.9891 14.7 29.891 14.7V14.1ZM22.832 15.7456C21.1315 16.8084 20.291 18.4792 20.291 20.7H20.891C20.891 18.6541 21.6505 17.1916 23.15 16.2544L22.832 15.7456ZM20.291 20.7C20.291 22.1049 20.75 23.3415 21.6643 24.3965L22.1177 24.0035C21.2987 23.0585 20.891 21.9618 20.891 20.7H20.291ZM21.6717 24.4047C22.6519 25.4549 24.2031 26.342 26.2907 27.0827L26.4913 26.5173C24.4456 25.7914 22.9968 24.9451 22.1103 23.9953L21.6717 24.4047ZM26.2935 27.0837C28.4426 27.8225 31.3554 28.592 35.0271 29.3931L35.155 28.8069C31.4933 28.008 28.6061 27.2442 26.4885 26.5163L26.2935 27.0837ZM35.0359 29.3949C41.0889 30.5257 45.9623 31.9531 49.6647 33.6721L49.9174 33.1279C46.1531 31.3802 41.2264 29.941 35.1461 28.8051L35.0359 29.3949ZM49.6687 33.6739C53.3623 35.3229 56.0433 37.4888 57.7377 40.1607L58.2444 39.8393C56.4721 37.0445 53.6864 34.8105 49.9133 33.1261L49.6687 33.6739ZM57.7395 40.1635C59.4335 42.7696 60.291 46.0753 60.291 50.1H60.891C60.891 45.9913 60.0153 42.5637 58.2426 39.8365L57.7395 40.1635ZM60.291 50.1C60.291 54.5716 59.0103 58.4388 56.4545 61.7155L56.9276 62.0845C59.5718 58.6945 60.891 54.695 60.891 50.1H60.291ZM56.454 61.7162C53.9598 64.9323 50.4749 67.4026 45.9839 69.1198L46.1982 69.6802C50.7738 67.9307 54.3556 65.401 56.9281 62.0838L56.454 61.7162ZM45.9839 69.1198C41.4911 70.8376 36.3285 71.7 30.491 71.7V72.3C36.3869 72.3 41.6243 71.429 46.1982 69.6802L45.9839 69.1198ZM86.9535 70.3L86.7414 70.5121L86.9535 70.3ZM86.2535 16.7H86.5535V16.4H86.2535V16.7ZM66.6535 16L66.4277 16.1975L66.4343 16.2051L66.4414 16.2121L66.6535 16ZM66.6535 1.7L66.8657 1.91213V1.91213L66.6535 1.7ZM124.054 1.7L124.266 1.48787L124.054 1.7ZM124.054 16L124.266 16.2121L124.273 16.2051L124.279 16.1975L124.054 16ZM104.454 16.7V16.4H104.154V16.7H104.454ZM88.7535 70.7C88.0901 70.7 87.5696 70.4918 87.1657 70.0879L86.7414 70.5121C87.2708 71.0416 87.9503 71.3 88.7535 71.3V70.7ZM87.1657 70.0879C86.7617 69.684 86.5535 69.1635 86.5535 68.5H85.9535C85.9535 69.3032 86.212 69.9827 86.7414 70.5121L87.1657 70.0879ZM86.5535 68.5V16.7H85.9535V68.5H86.5535ZM86.2535 16.4H68.4535V17H86.2535V16.4ZM68.4535 16.4C67.7901 16.4 67.2696 16.1918 66.8657 15.7879L66.4414 16.2121C66.9708 16.7416 67.6503 17 68.4535 17V16.4ZM66.8793 15.8024C66.4572 15.3201 66.2535 14.7892 66.2535 14.2H65.6535C65.6535 14.9442 65.9165 15.6133 66.4277 16.1975L66.8793 15.8024ZM66.2535 14.2V3.5H65.6535V14.2H66.2535ZM66.2535 3.5C66.2535 2.83654 66.4617 2.31603 66.8657 1.91213L66.4414 1.48787C65.912 2.01729 65.6535 2.69679 65.6535 3.5H66.2535ZM66.8657 1.91213C67.2696 1.50822 67.7901 1.3 68.4535 1.3V0.699995C67.6503 0.699995 66.9708 0.958437 66.4414 1.48787L66.8657 1.91213ZM68.4535 1.3H122.254V0.699995H68.4535V1.3ZM122.254 1.3C122.917 1.3 123.437 1.50822 123.841 1.91213L124.266 1.48787C123.736 0.958437 123.057 0.699995 122.254 0.699995V1.3ZM123.841 1.91213C124.245 2.31603 124.454 2.83654 124.454 3.5H125.054C125.054 2.69679 124.795 2.01729 124.266 1.48787L123.841 1.91213ZM124.454 3.5V14.2H125.054V3.5H124.454ZM124.454 14.2C124.454 14.7892 124.25 15.3201 123.828 15.8024L124.279 16.1975C124.791 15.6133 125.054 14.9442 125.054 14.2H124.454ZM123.841 15.7879C123.437 16.1918 122.917 16.4 122.254 16.4V17C123.057 17 123.736 16.7416 124.266 16.2121L123.841 15.7879ZM122.254 16.4H104.454V17H122.254V16.4ZM104.154 16.7V68.5H104.754V16.7H104.154ZM104.154 68.5C104.154 69.1635 103.945 69.684 103.541 70.0879L103.966 70.5121C104.495 69.9827 104.754 69.3032 104.754 68.5H104.154ZM103.541 70.0879C103.137 70.4918 102.617 70.7 101.954 70.7V71.3C102.757 71.3 103.436 71.0416 103.966 70.5121L103.541 70.0879ZM101.954 70.7H88.7535V71.3H101.954V70.7ZM148.277 69.1L148.154 69.3738L148.159 69.376L148.277 69.1ZM137.877 60L137.619 60.1537L137.62 60.1556L137.877 60ZM134.877 1.7L135.089 1.91213V1.91213L134.877 1.7ZM151.377 1.7L151.165 1.91213V1.91213L151.377 1.7ZM155.177 54L154.958 54.2055L154.965 54.2121L155.177 54ZM172.777 54L172.562 53.7912L172.561 53.7913L172.777 54ZM176.677 1.7L176.479 1.47423L176.472 1.4808L176.465 1.48787L176.677 1.7ZM193.177 1.7L192.965 1.91213L192.972 1.91919L192.979 1.92577L193.177 1.7ZM190.277 60L190.533 60.1556L190.535 60.1537L190.277 60ZM179.877 69.1L179.996 69.3753L180 69.3738L179.877 69.1ZM164.077 71.7C158.109 71.7 152.884 70.7385 148.395 68.824L148.159 69.376C152.737 71.3282 158.045 72.3 164.077 72.3V71.7ZM148.4 68.8262C143.987 66.8503 140.568 63.8574 138.133 59.8444L137.62 60.1556C140.12 64.2759 143.634 67.3497 148.154 69.3738L148.4 68.8262ZM138.135 59.8463C135.703 55.7719 134.477 50.5959 134.477 44.3H133.877C133.877 50.6708 135.117 55.9614 137.619 60.1537L138.135 59.8463ZM134.477 44.3V3.5H133.877V44.3H134.477ZM134.477 3.5C134.477 2.83654 134.685 2.31603 135.089 1.91213L134.665 1.48787C134.135 2.01729 133.877 2.69679 133.877 3.5H134.477ZM135.089 1.91213C135.493 1.50822 136.014 1.3 136.677 1.3V0.699995C135.874 0.699995 135.194 0.958437 134.665 1.48787L135.089 1.91213ZM136.677 1.3H149.577V0.699995H136.677V1.3ZM149.577 1.3C150.24 1.3 150.761 1.50822 151.165 1.91213L151.589 1.48787C151.06 0.958437 150.38 0.699995 149.577 0.699995V1.3ZM151.165 1.91213C151.569 2.31603 151.777 2.83654 151.777 3.5H152.377C152.377 2.69679 152.119 2.01729 151.589 1.48787L151.165 1.91213ZM151.777 3.5V44.2H152.377V3.5H151.777ZM151.777 44.2C151.777 48.5765 152.82 51.9296 154.958 54.2054L155.396 53.7946C153.4 51.6704 152.377 48.4901 152.377 44.2H151.777ZM154.965 54.2121C157.168 56.4154 160.219 57.5 164.077 57.5V56.9C160.335 56.9 157.452 55.8512 155.389 53.7879L154.965 54.2121ZM164.077 57.5C167.869 57.5 170.856 56.4146 172.992 54.2087L172.561 53.7913C170.565 55.8521 167.751 56.9 164.077 56.9V57.5ZM172.992 54.2088C175.199 51.9332 176.277 48.5788 176.277 44.2H175.677C175.677 48.4879 174.622 51.6668 172.562 53.7912L172.992 54.2088ZM176.277 44.2V3.5H175.677V44.2H176.277ZM176.277 3.5C176.277 2.83654 176.485 2.31603 176.889 1.91213L176.465 1.48787C175.935 2.01729 175.677 2.69679 175.677 3.5H176.277ZM176.875 1.92577C177.357 1.50368 177.888 1.3 178.477 1.3V0.699995C177.733 0.699995 177.064 0.962984 176.479 1.47423L176.875 1.92577ZM178.477 1.3H191.477V0.699995H178.477V1.3ZM191.477 1.3C192.065 1.3 192.555 1.50236 192.965 1.91213L193.389 1.48787C192.866 0.964298 192.222 0.699995 191.477 0.699995V1.3ZM192.979 1.92577C193.445 2.33324 193.677 2.84973 193.677 3.5H194.277C194.277 2.68359 193.975 2.00008 193.375 1.47422L192.979 1.92577ZM193.677 3.5V44.3H194.277V3.5H193.677ZM193.677 44.3C193.677 50.5959 192.451 55.7719 190.019 59.8463L190.535 60.1537C193.036 55.9614 194.277 50.6708 194.277 44.3H193.677ZM190.02 59.8444C187.586 63.8574 184.167 66.8503 179.754 68.8262L180 69.3738C184.52 67.3497 188.034 64.2759 190.533 60.1556L190.02 59.8444ZM179.758 68.8247C175.337 70.7383 170.112 71.7 164.077 71.7V72.3C170.175 72.3 175.484 71.3284 179.996 69.3753L179.758 68.8247ZM208.873 70.3L209.085 70.0879L208.873 70.3ZM208.873 1.7L209.085 1.91213L209.085 1.91213L208.873 1.7ZM258.173 7L257.984 7.23305L257.988 7.23578L258.173 7ZM262.173 35.8L261.929 35.6256L261.927 35.629L262.173 35.8ZM253.173 43.2L253.051 42.9261L252.751 43.0601L252.911 43.3468L253.173 43.2ZM266.973 67.8L267.241 67.6658L267.238 67.6595L267.235 67.6532L266.973 67.8ZM266.573 70.4L266.785 70.6121L266.573 70.4ZM249.073 70.1L248.85 70.3007L248.855 70.3066L248.861 70.3121L249.073 70.1ZM247.773 68.3L248.041 68.1658L248.039 68.162L247.773 68.3ZM236.373 46.3L236.639 46.162L236.555 46H236.373V46.3ZM226.073 46.3V46H225.773V46.3H226.073ZM226.073 32.2H225.773V32.5H226.073V32.2ZM244.673 29.9L244.465 29.6834L244.461 29.6879L244.673 29.9ZM244.773 17.3L244.552 17.5028L244.556 17.5076L244.773 17.3ZM226.073 14.9V14.6H225.773V14.9H226.073ZM210.673 70.7C210.01 70.7 209.489 70.4918 209.085 70.0879L208.661 70.5121C209.19 71.0416 209.87 71.3 210.673 71.3V70.7ZM209.085 70.0879C208.681 69.684 208.473 69.1635 208.473 68.5H207.873C207.873 69.3032 208.131 69.9827 208.661 70.5121L209.085 70.0879ZM208.473 68.5V3.5H207.873V68.5H208.473ZM208.473 3.5C208.473 2.83654 208.681 2.31603 209.085 1.91213L208.661 1.48787C208.131 2.01729 207.873 2.69679 207.873 3.5H208.473ZM209.085 1.91213C209.489 1.50822 210.01 1.3 210.673 1.3V0.699995C209.87 0.699995 209.19 0.958437 208.661 1.48787L209.085 1.91213ZM210.673 1.3H237.873V0.699995H210.673V1.3ZM237.873 1.3C246.429 1.3 253.12 3.28951 257.984 7.23302L258.362 6.76697C253.359 2.71048 246.518 0.699995 237.873 0.699995V1.3ZM257.988 7.23578C262.904 11.1037 265.373 16.6105 265.373 23.8H265.973C265.973 16.4561 263.442 10.763 258.359 6.76421L257.988 7.23578ZM265.373 23.8C265.373 28.4823 264.22 32.4185 261.929 35.6256L262.417 35.9744C264.793 32.6482 265.973 28.5843 265.973 23.8H265.373ZM261.927 35.629C259.692 38.8493 256.736 41.2811 253.051 42.9261L253.295 43.4739C257.077 41.7856 260.121 39.284 262.42 35.971L261.927 35.629ZM252.911 43.3468L266.711 67.9468L267.235 67.6532L253.435 43.0532L252.911 43.3468ZM266.705 67.9342C266.891 68.3061 266.973 68.6264 266.973 68.9H267.573C267.573 68.507 267.455 68.0939 267.241 67.6658L266.705 67.9342ZM266.973 68.9C266.973 69.3358 266.785 69.7633 266.361 70.1879L266.785 70.6121C267.294 70.1034 267.573 69.5309 267.573 68.9H266.973ZM266.361 70.1879C266.021 70.5279 265.599 70.7 265.073 70.7V71.3C265.747 71.3 266.325 71.0721 266.785 70.6121L266.361 70.1879ZM265.073 70.7H251.873V71.3H265.073V70.7ZM251.873 70.7C250.647 70.7 249.806 70.4091 249.285 69.8879L248.861 70.3121C249.54 70.9909 250.566 71.3 251.873 71.3V70.7ZM249.296 69.8993C248.706 69.2437 248.292 68.6662 248.041 68.1658L247.505 68.4342C247.788 69.0005 248.24 69.623 248.85 70.3007L249.296 69.8993ZM248.039 68.162L236.639 46.162L236.107 46.438L247.507 68.438L248.039 68.162ZM236.373 46H226.073V46.6H236.373V46ZM225.773 46.3V68.5H226.373V46.3H225.773ZM225.773 68.5C225.773 69.1635 225.565 69.684 225.161 70.0879L225.585 70.5121C226.115 69.9827 226.373 69.3032 226.373 68.5H225.773ZM225.161 70.0879C224.757 70.4918 224.237 70.7 223.573 70.7V71.3C224.376 71.3 225.056 71.0416 225.585 70.5121L225.161 70.0879ZM223.573 70.7H210.673V71.3H223.573V70.7ZM226.073 32.5H237.673V31.9H226.073V32.5ZM237.673 32.5C240.85 32.5 243.275 31.7226 244.885 30.1121L244.461 29.6879C243.005 31.144 240.762 31.9 237.673 31.9V32.5ZM244.881 30.1166C246.551 28.5154 247.373 26.3305 247.373 23.6H246.773C246.773 26.2028 245.995 28.2179 244.465 29.6834L244.881 30.1166ZM247.373 23.6C247.373 20.937 246.586 18.7578 244.99 17.0924L244.556 17.5076C246.027 19.0422 246.773 21.063 246.773 23.6H247.373ZM244.994 17.0973C243.447 15.4097 240.981 14.6 237.673 14.6V15.2C240.898 15.2 243.166 15.9903 244.552 17.5027L244.994 17.0973ZM237.673 14.6H226.073V15.2H237.673V14.6ZM225.773 14.9V32.2H226.373V14.9H225.773ZM293.665 70.3L293.453 70.5121L293.665 70.3ZM292.965 16.7H293.265V16.4H292.965V16.7ZM273.365 16L273.139 16.1975L273.146 16.2051L273.153 16.2121L273.365 16ZM273.365 1.7L273.577 1.91213V1.91213L273.365 1.7ZM330.765 1.7L330.977 1.48787L330.765 1.7ZM330.765 16L330.977 16.2121L330.984 16.2051L330.991 16.1975L330.765 16ZM311.165 16.7V16.4H310.865V16.7H311.165ZM295.465 70.7C294.802 70.7 294.281 70.4918 293.877 70.0879L293.453 70.5121C293.983 71.0416 294.662 71.3 295.465 71.3V70.7ZM293.877 70.0879C293.473 69.684 293.265 69.1635 293.265 68.5H292.665C292.665 69.3032 292.924 69.9827 293.453 70.5121L293.877 70.0879ZM293.265 68.5V16.7H292.665V68.5H293.265ZM292.965 16.4H275.165V17H292.965V16.4ZM275.165 16.4C274.502 16.4 273.981 16.1918 273.577 15.7879L273.153 16.2121C273.683 16.7416 274.362 17 275.165 17V16.4ZM273.591 15.8024C273.169 15.3201 272.965 14.7892 272.965 14.2H272.365C272.365 14.9442 272.628 15.6133 273.139 16.1975L273.591 15.8024ZM272.965 14.2V3.5H272.365V14.2H272.965ZM272.965 3.5C272.965 2.83654 273.173 2.31603 273.577 1.91213L273.153 1.48787C272.624 2.01729 272.365 2.69679 272.365 3.5H272.965ZM273.577 1.91213C273.981 1.50822 274.502 1.3 275.165 1.3V0.699995C274.362 0.699995 273.683 0.958437 273.153 1.48787L273.577 1.91213ZM275.165 1.3H328.965V0.699995H275.165V1.3ZM328.965 1.3C329.629 1.3 330.149 1.50822 330.553 1.91213L330.977 1.48787C330.448 0.958437 329.768 0.699995 328.965 0.699995V1.3ZM330.553 1.91213C330.957 2.31603 331.165 2.83654 331.165 3.5H331.765C331.765 2.69679 331.507 2.01729 330.977 1.48787L330.553 1.91213ZM331.165 3.5V14.2H331.765V3.5H331.165ZM331.165 14.2C331.165 14.7892 330.962 15.3201 330.539 15.8024L330.991 16.1975C331.502 15.6133 331.765 14.9442 331.765 14.2H331.165ZM330.553 15.7879C330.149 16.1918 329.629 16.4 328.965 16.4V17C329.768 17 330.448 16.7416 330.977 16.2121L330.553 15.7879ZM328.965 16.4H311.165V17H328.965V16.4ZM310.865 16.7V68.5H311.465V16.7H310.865ZM310.865 68.5C310.865 69.1635 310.657 69.684 310.253 70.0879L310.677 70.5121C311.207 69.9827 311.465 69.3032 311.465 68.5H310.865ZM310.253 70.0879C309.849 70.4918 309.329 70.7 308.665 70.7V71.3C309.468 71.3 310.148 71.0416 310.677 70.5121L310.253 70.0879ZM308.665 70.7H295.465V71.3H308.665V70.7ZM354.989 69.1L354.866 69.3738L354.871 69.376L354.989 69.1ZM344.589 60L344.331 60.1537L344.332 60.1556L344.589 60ZM341.589 1.7L341.801 1.91213V1.91213L341.589 1.7ZM358.089 1.7L357.877 1.91213V1.91213L358.089 1.7ZM361.889 54L361.67 54.2055L361.677 54.2121L361.889 54ZM379.489 54L379.273 53.7912L379.273 53.7913L379.489 54ZM383.389 1.7L383.191 1.47423L383.184 1.4808L383.177 1.48787L383.389 1.7ZM399.889 1.7L399.677 1.91213L399.684 1.91919L399.691 1.92577L399.889 1.7ZM396.989 60L397.245 60.1556L397.246 60.1537L396.989 60ZM386.589 69.1L386.708 69.3753L386.711 69.3738L386.589 69.1ZM370.789 71.7C364.821 71.7 359.595 70.7385 355.106 68.824L354.871 69.376C359.449 71.3282 364.757 72.3 370.789 72.3V71.7ZM355.111 68.8262C350.698 66.8503 347.279 63.8574 344.845 59.8444L344.332 60.1556C346.831 64.2759 350.346 67.3497 354.866 69.3738L355.111 68.8262ZM344.846 59.8463C342.415 55.7719 341.189 50.5959 341.189 44.3H340.589C340.589 50.6708 341.829 55.9614 344.331 60.1537L344.846 59.8463ZM341.189 44.3V3.5H340.589V44.3H341.189ZM341.189 3.5C341.189 2.83654 341.397 2.31603 341.801 1.91213L341.377 1.48787C340.847 2.01729 340.589 2.69679 340.589 3.5H341.189ZM341.801 1.91213C342.205 1.50822 342.725 1.3 343.389 1.3V0.699995C342.585 0.699995 341.906 0.958437 341.377 1.48787L341.801 1.91213ZM343.389 1.3H356.289V0.699995H343.389V1.3ZM356.289 1.3C356.952 1.3 357.473 1.50822 357.877 1.91213L358.301 1.48787C357.771 0.958437 357.092 0.699995 356.289 0.699995V1.3ZM357.877 1.91213C358.28 2.31603 358.489 2.83654 358.489 3.5H359.089C359.089 2.69679 358.83 2.01729 358.301 1.48787L357.877 1.91213ZM358.489 3.5V44.2H359.089V3.5H358.489ZM358.489 44.2C358.489 48.5765 359.532 51.9296 361.67 54.2054L362.107 53.7946C360.112 51.6704 359.089 48.4901 359.089 44.2H358.489ZM361.677 54.2121C363.88 56.4154 366.931 57.5 370.789 57.5V56.9C367.046 56.9 364.164 55.8512 362.101 53.7879L361.677 54.2121ZM370.789 57.5C374.581 57.5 377.567 56.4146 379.704 54.2087L379.273 53.7913C377.277 55.8521 374.463 56.9 370.789 56.9V57.5ZM379.704 54.2088C381.911 51.9332 382.989 48.5788 382.989 44.2H382.389C382.389 48.4879 381.333 51.6668 379.273 53.7912L379.704 54.2088ZM382.989 44.2V3.5H382.389V44.2H382.989ZM382.989 3.5C382.989 2.83654 383.197 2.31603 383.601 1.91213L383.177 1.48787C382.647 2.01729 382.389 2.69679 382.389 3.5H382.989ZM383.586 1.92577C384.069 1.50368 384.6 1.3 385.189 1.3V0.699995C384.445 0.699995 383.775 0.962984 383.191 1.47423L383.586 1.92577ZM385.189 1.3H398.189V0.699995H385.189V1.3ZM398.189 1.3C398.777 1.3 399.267 1.50236 399.677 1.91213L400.101 1.48787C399.577 0.964298 398.934 0.699995 398.189 0.699995V1.3ZM399.691 1.92577C400.157 2.33324 400.389 2.84973 400.389 3.5H400.989C400.989 2.68359 400.687 2.00008 400.086 1.47422L399.691 1.92577ZM400.389 3.5V44.3H400.989V3.5H400.389ZM400.389 44.3C400.389 50.5959 399.163 55.7719 396.731 59.8463L397.246 60.1537C399.748 55.9614 400.989 50.6708 400.989 44.3H400.389ZM396.732 59.8444C394.298 63.8574 390.879 66.8503 386.466 68.8262L386.711 69.3738C391.232 67.3497 394.746 64.2759 397.245 60.1556L396.732 59.8444ZM386.47 68.8247C382.049 70.7383 376.824 71.7 370.789 71.7V72.3C376.887 72.3 382.196 71.3284 386.708 69.3753L386.47 68.8247ZM415.585 70.3L415.797 70.0879L415.585 70.3ZM415.585 1.7L415.797 1.91213V1.91213L415.585 1.7ZM459.785 3.6L459.667 3.87603L459.673 3.87823L459.785 3.6ZM469.385 11.2L469.135 11.3664L469.137 11.3697L469.385 11.2ZM469.385 36.8L469.139 36.6279L469.137 36.6313L469.385 36.8ZM459.785 44.2L459.676 43.9202L459.675 43.9208L459.785 44.2ZM433.485 46.6V46.3H433.185V46.6H433.485ZM432.685 70.3L432.487 70.0742L432.48 70.0808L432.473 70.0879L432.685 70.3ZM433.185 32.8H432.885V33.1H433.185V32.8ZM451.685 30.6L451.491 30.3709L451.487 30.3748L451.685 30.6ZM452.085 17.5L452.314 17.3062L452.085 17.5ZM433.185 14.9V14.6H432.885V14.9H433.185ZM417.385 70.7C416.721 70.7 416.201 70.4918 415.797 70.0879L415.373 70.5121C415.902 71.0416 416.582 71.3 417.385 71.3V70.7ZM415.797 70.0879C415.393 69.684 415.185 69.1635 415.185 68.5H414.585C414.585 69.3032 414.843 69.9827 415.373 70.5121L415.797 70.0879ZM415.185 68.5V3.5H414.585V68.5H415.185ZM415.185 3.5C415.185 2.83654 415.393 2.31603 415.797 1.91213L415.373 1.48787C414.843 2.01729 414.585 2.69679 414.585 3.5H415.185ZM415.797 1.91213C416.201 1.50822 416.721 1.3 417.385 1.3V0.699995C416.582 0.699995 415.902 0.958437 415.373 1.48787L415.797 1.91213ZM417.385 1.3H445.385V0.699995H417.385V1.3ZM445.385 1.3C450.888 1.3 455.646 2.16194 459.667 3.87597L459.902 3.32402C455.79 1.57138 450.949 0.699995 445.385 0.699995V1.3ZM459.673 3.87823C463.755 5.52445 466.905 8.02123 469.135 11.3664L469.634 11.0336C467.331 7.57876 464.081 5.00888 459.897 3.32176L459.673 3.87823ZM469.137 11.3697C471.428 14.7081 472.585 18.9447 472.585 24.1H473.185C473.185 18.8552 472.008 14.4919 469.632 11.0302L469.137 11.3697ZM472.585 24.1C472.585 29.1879 471.429 33.3568 469.139 36.628L469.631 36.972C472.007 33.5765 473.185 29.2787 473.185 24.1H472.585ZM469.137 36.6313C466.908 39.9093 463.759 42.3399 459.676 43.9202L459.893 44.4798C464.077 42.8601 467.329 40.3574 469.633 36.9687L469.137 36.6313ZM459.675 43.9208C455.651 45.5039 450.89 46.3 445.385 46.3V46.9C450.946 46.9 455.785 46.0961 459.895 44.4792L459.675 43.9208ZM445.385 46.3H433.485V46.9H445.385V46.3ZM433.185 46.6V68.5H433.785V46.6H433.185ZM433.185 68.5C433.185 69.1503 432.953 69.6667 432.487 70.0742L432.882 70.5258C433.483 69.9999 433.785 69.3164 433.785 68.5H433.185ZM432.473 70.0879C432.069 70.4918 431.548 70.7 430.885 70.7V71.3C431.688 71.3 432.367 71.0416 432.897 70.5121L432.473 70.0879ZM430.885 70.7H417.385V71.3H430.885V70.7ZM433.185 33.1H444.885V32.5H433.185V33.1ZM444.885 33.1C447.803 33.1 450.147 32.3527 451.883 30.8252L451.487 30.3748C449.889 31.7806 447.7 32.5 444.885 32.5V33.1ZM451.879 30.829C453.699 29.2884 454.585 26.958 454.585 23.9H453.985C453.985 26.8419 453.137 28.9783 451.491 30.371L451.879 30.829ZM454.585 23.9C454.585 21.3045 453.832 19.1001 452.314 17.3062L451.856 17.6938C453.271 19.3666 453.985 21.4289 453.985 23.9H454.585ZM452.314 17.3062C450.768 15.4788 448.264 14.6 444.885 14.6V15.2C448.172 15.2 450.469 16.0545 451.856 17.6938L452.314 17.3062ZM444.885 14.6H433.185V15.2H444.885V14.6ZM432.885 14.9V32.8H433.485V14.9H432.885ZM492.898 69.2L492.777 69.4747L492.781 69.4762L492.898 69.2ZM482.898 61.7L482.657 61.8783L482.898 61.7ZM479.298 51.9H478.998L478.998 51.9115L479.298 51.9ZM479.898 50.5L479.686 50.2879V50.2879L479.898 50.5ZM496.198 50.3L496.024 50.5441L496.031 50.5495L496.039 50.5544L496.198 50.3ZM497.598 51.6L497.863 51.4588L497.852 51.4385L497.838 51.42L497.598 51.6ZM499.798 54.5L499.586 54.7123L499.593 54.7193L499.798 54.5ZM503.598 56.8L503.489 57.0794L503.496 57.0822L503.503 57.0846L503.598 56.8ZM518.198 55.8L518.044 55.5427L518.04 55.5451L518.198 55.8ZM519.598 47.3L519.393 47.519L519.401 47.5258L519.598 47.3ZM514.398 44.7L514.301 44.9839L514.31 44.9869L514.398 44.7ZM504.998 42.3L504.936 42.5936L504.938 42.594L504.998 42.3ZM491.998 38.2L491.866 38.4694L491.872 38.4722L491.998 38.2ZM483.898 31.5L483.648 31.6664L483.65 31.6692L483.898 31.5ZM484.498 10.2L484.256 10.0232L484.253 10.0266L484.498 10.2ZM494.198 2.7L494.078 2.42495L494.198 2.7ZM520.998 1.8L520.9 2.0835L520.902 2.08406L520.998 1.8ZM529.898 6.59999L530.09 6.36953L529.898 6.59999ZM535.298 13L535.033 13.1405L535.038 13.1497L535.298 13ZM537.298 19.5H537.598L537.598 19.4906L537.298 19.5ZM536.698 21L536.91 21.2121L536.918 21.204L536.926 21.1952L536.698 21ZM520.098 21.2L519.964 21.4683L520.098 21.2ZM518.698 19.9L518.409 19.9789L518.421 20.0259L518.448 20.0664L518.698 19.9ZM515.498 16.1L515.329 16.3483L515.341 16.3555L515.498 16.1ZM501.998 16L502.157 16.2544L502.16 16.2527L501.998 16ZM500.898 24.2L500.671 24.3966L500.679 24.4047L500.898 24.2ZM505.398 26.8L505.298 27.0827L505.301 27.0837L505.398 26.8ZM514.098 29.1L514.034 29.3932L514.043 29.3949L514.098 29.1ZM528.798 33.4L528.672 33.6721L528.676 33.6739L528.798 33.4ZM536.998 40L536.745 40.1607L536.747 40.1635L536.998 40ZM535.698 61.9L535.461 61.7155L535.461 61.7162L535.698 61.9ZM525.098 69.4L525.205 69.6802L525.098 69.4ZM509.498 71.7C502.857 71.7 497.367 70.7699 493.015 68.9238L492.781 69.4762C497.229 71.3635 502.806 72.3 509.498 72.3V71.7ZM493.019 68.9253C488.654 67.0077 485.368 64.5367 483.139 61.5217L482.657 61.8783C484.962 64.9967 488.342 67.5257 492.777 69.4747L493.019 68.9253ZM483.139 61.5217C480.905 58.4985 479.729 55.289 479.598 51.8885L478.998 51.9115C479.134 55.4444 480.358 58.7682 482.657 61.8783L483.139 61.5217ZM479.598 51.9C479.598 51.4514 479.763 51.0597 480.11 50.7121L479.686 50.2879C479.233 50.7403 478.998 51.2819 478.998 51.9H479.598ZM480.11 50.7121C480.527 50.2955 480.986 50.1 481.498 50.1V49.5C480.81 49.5 480.203 49.7711 479.686 50.2879L480.11 50.7121ZM481.498 50.1H494.098V49.5H481.498V50.1ZM494.098 50.1C495.005 50.1 495.631 50.2635 496.024 50.5441L496.372 50.0559C495.832 49.6698 495.058 49.5 494.098 49.5V50.1ZM496.039 50.5544C496.539 50.867 496.979 51.2745 497.358 51.78L497.838 51.42C497.417 50.8589 496.924 50.3997 496.357 50.0456L496.039 50.5544ZM497.333 51.7412C497.883 52.7712 498.635 53.7612 499.586 54.7121L500.01 54.2879C499.094 53.3721 498.38 52.4288 497.863 51.4588L497.333 51.7412ZM499.593 54.7193C500.626 55.6832 501.927 56.4683 503.489 57.0794L503.707 56.5206C502.202 55.9317 500.97 55.1835 500.003 54.2807L499.593 54.7193ZM503.503 57.0846C505.143 57.6312 507.144 57.9 509.498 57.9V57.3C507.186 57.3 505.253 57.0355 503.693 56.5154L503.503 57.0846ZM509.498 57.9C513.386 57.9 516.353 57.2984 518.356 56.0549L518.04 55.5451C516.177 56.7016 513.343 57.3 509.498 57.3V57.9ZM518.352 56.0572C520.429 54.8114 521.498 53.0873 521.498 50.9H520.898C520.898 52.8461 519.967 54.3886 518.044 55.5428L518.352 56.0572ZM521.498 50.9C521.498 49.3503 520.93 48.0667 519.796 47.0742L519.401 47.5258C520.4 48.3999 520.898 49.5164 520.898 50.9H521.498ZM519.803 47.0811C518.687 46.0349 516.902 45.1515 514.486 44.4131L514.31 44.9869C516.694 45.7151 518.376 46.5651 519.393 47.5189L519.803 47.0811ZM514.495 44.4162C512.145 43.6102 508.997 42.8072 505.058 42.006L504.938 42.594C508.866 43.3928 511.985 44.1898 514.301 44.9838L514.495 44.4162ZM505.06 42.0064C500.009 40.9431 495.698 39.5825 492.124 37.9278L491.872 38.4722C495.498 40.1508 499.854 41.5236 504.936 42.5936L505.06 42.0064ZM492.13 37.9307C488.635 36.2158 485.978 34.0139 484.146 31.3308L483.65 31.6692C485.551 34.4528 488.295 36.7175 491.866 38.4693L492.13 37.9307ZM484.148 31.3336C482.321 28.5931 481.398 25.1877 481.398 21.1H480.798C480.798 25.2789 481.742 28.8069 483.648 31.6664L484.148 31.3336ZM481.398 21.1C481.398 17.093 482.513 13.5207 484.743 10.3734L484.253 10.0266C481.949 13.2793 480.798 16.9737 480.798 21.1H481.398ZM484.74 10.3767C487.038 7.22552 490.226 4.75676 494.318 2.97505L494.078 2.42495C489.903 4.24324 486.625 6.77448 484.256 10.0232L484.74 10.3767ZM494.318 2.97505C498.405 1.19515 503.262 0.299996 508.898 0.299996V-0.300004C503.2 -0.300004 498.258 0.604842 494.078 2.42495L494.318 2.97505ZM508.898 0.299996C513.473 0.299996 517.472 0.89679 520.9 2.08349L521.096 1.5165C517.591 0.303203 513.523 -0.300004 508.898 -0.300004V0.299996ZM520.902 2.08406C524.407 3.27446 527.339 4.85814 529.706 6.83046L530.09 6.36953C527.657 4.34185 524.656 2.72553 521.095 1.51593L520.902 2.08406ZM529.706 6.83046C532.082 8.81078 533.855 10.9148 535.033 13.1404L535.563 12.8596C534.341 10.5518 532.514 8.38922 530.09 6.36953L529.706 6.83046ZM535.038 13.1497C536.285 15.315 536.933 17.4339 536.998 19.5094L537.598 19.4906C537.529 17.2994 536.845 15.085 535.558 12.8503L535.038 13.1497ZM536.998 19.5C536.998 19.9509 536.831 20.3837 536.47 20.8048L536.926 21.1952C537.365 20.683 537.598 20.1157 537.598 19.5H536.998ZM536.486 20.7879C536.146 21.1279 535.724 21.3 535.198 21.3V21.9C535.872 21.9 536.45 21.6721 536.91 21.2121L536.486 20.7879ZM535.198 21.3H521.998V21.9H535.198V21.3ZM521.998 21.3C521.301 21.3 520.715 21.1733 520.232 20.9317L519.964 21.4683C520.547 21.7601 521.229 21.9 521.998 21.9V21.3ZM520.232 20.9317C519.754 20.6928 519.325 20.2992 518.948 19.7336L518.448 20.0664C518.871 20.7008 519.375 21.1739 519.964 21.4683L520.232 20.9317ZM518.987 19.8211C518.561 18.2589 517.431 16.9373 515.655 15.8445L515.341 16.3555C517.032 17.396 518.035 18.6078 518.409 19.9789L518.987 19.8211ZM515.667 15.8519C513.935 14.6746 511.671 14.1 508.898 14.1V14.7C511.592 14.7 513.727 15.2587 515.329 16.3481L515.667 15.8519ZM508.898 14.1C505.933 14.1 503.569 14.6382 501.836 15.7473L502.16 16.2527C503.76 15.2284 505.996 14.7 508.898 14.7V14.1ZM501.839 15.7456C500.139 16.8084 499.298 18.4792 499.298 20.7H499.898C499.898 18.6541 500.658 17.1916 502.157 16.2544L501.839 15.7456ZM499.298 20.7C499.298 22.1049 499.757 23.3415 500.671 24.3965L501.125 24.0035C500.306 23.0585 499.898 21.9618 499.898 20.7H499.298ZM500.679 24.4047C501.659 25.4549 503.21 26.342 505.298 27.0827L505.498 26.5173C503.453 25.7914 502.004 24.9451 501.117 23.9953L500.679 24.4047ZM505.301 27.0837C507.45 27.8225 510.362 28.592 514.034 29.3931L514.162 28.8069C510.5 28.008 507.613 27.2442 505.496 26.5163L505.301 27.0837ZM514.043 29.3949C520.096 30.5257 524.969 31.9531 528.672 33.6721L528.924 33.1279C525.16 31.3802 520.233 29.941 514.153 28.8051L514.043 29.3949ZM528.676 33.6739C532.369 35.3229 535.05 37.4888 536.745 40.1607L537.251 39.8393C535.479 37.0445 532.693 34.8105 528.92 33.1261L528.676 33.6739ZM536.747 40.1635C538.44 42.7696 539.298 46.0753 539.298 50.1H539.898C539.898 45.9913 539.022 42.5637 537.25 39.8365L536.747 40.1635ZM539.298 50.1C539.298 54.5716 538.017 58.4388 535.461 61.7155L535.935 62.0845C538.579 58.6945 539.898 54.695 539.898 50.1H539.298ZM535.461 61.7162C532.967 64.9323 529.482 67.4026 524.991 69.1198L525.205 69.6802C529.781 67.9307 533.363 65.401 535.935 62.0838L535.461 61.7162ZM524.991 69.1198C520.498 70.8376 515.336 71.7 509.498 71.7V72.3C515.394 72.3 520.631 71.429 525.205 69.6802L524.991 69.1198Z" fill="white" mask="url(#path-1-inside-1_545_332)"/>
</svg>
