<svg width="877" height="91" viewBox="0 0 877 91" fill="none" xmlns="http://www.w3.org/2000/svg">
<mask id="path-1-outside-1_72_1924" maskUnits="userSpaceOnUse" x="0" y="0" width="877" height="91" fill="black">
<rect fill="white" width="877" height="91"/>
<path d="M55.1731 24.617C50.4253 21.6953 45.7993 19.6258 39.8342 19.6258C34.5995 19.6258 30.3387 22.1823 30.3387 27.0518C30.3387 30.5822 32.7734 33.1387 40.4429 34.2343C57.6078 36.7908 66.0077 48.1123 66.0077 61.3817C66.0077 75.625 55.0514 89.6248 34.356 89.6248C18.7736 89.6248 9.27814 84.7553 1 78.1814L11.5911 62.8426C17.4345 67.4686 24.3736 70.999 33.0169 70.999C39.9559 70.999 43.6081 66.8599 43.6081 62.2339C43.6081 56.3905 39.7125 52.7384 32.043 51.3992C14.2694 48.2341 7.2086 39.3473 7.2086 28.1474C7.2086 12.4433 19.7475 1.24348 38.982 1.24348C49.6949 1.24348 56.2687 3.79996 62.5991 7.45208L55.1731 24.617Z"/>
<path d="M99.6057 58.8252C99.6057 67.3468 105.084 70.999 111.779 70.999C118.475 70.999 123.953 67.3468 123.953 58.8252V1.9739H145.135V61.1382C145.135 80.4945 129.918 89.7465 111.779 89.7465C93.7623 89.7465 78.5451 80.4945 78.5451 61.1382V1.9739H99.6057V58.8252Z"/>
<path d="M215.896 25.3475C215.896 35.5734 212.243 40.4429 207.861 42.3907C216.261 44.7037 222.713 51.2775 222.713 63.6947C222.713 80.4945 211.026 88.8943 195.322 88.8943H161.114V1.9739H190.209C205.913 1.9739 215.896 11.3477 215.896 25.3475ZM182.296 35.4517H186.313C191.67 35.4517 194.835 32.4082 194.835 26.9301C194.835 21.8171 191.67 18.0432 186.313 18.0432H182.296V35.4517ZM182.296 72.7033H191.426C197.27 72.7033 201.652 69.1729 201.652 62.2339C201.652 55.5383 197.27 51.6427 191.426 51.6427H182.296V72.7033Z"/>
<path d="M285.199 24.617C280.451 21.6953 275.825 19.6258 269.86 19.6258C264.625 19.6258 260.364 22.1823 260.364 27.0518C260.364 30.5822 262.799 33.1387 270.468 34.2343C287.633 36.7908 296.033 48.1123 296.033 61.3817C296.033 75.625 285.077 89.6248 264.382 89.6248C248.799 89.6248 239.304 84.7553 231.026 78.1814L241.617 62.8426C247.46 67.4686 254.399 70.999 263.042 70.999C269.981 70.999 273.634 66.8599 273.634 62.2339C273.634 56.3905 269.738 52.7384 262.069 51.3992C244.295 48.2341 237.234 39.3473 237.234 28.1474C237.234 12.4433 249.773 1.24348 269.008 1.24348C279.72 1.24348 286.294 3.79996 292.625 7.45208L285.199 24.617Z"/>
<path d="M328.657 45.4341C328.657 57.3644 336.692 67.8338 352.883 67.8338C363.839 67.8338 369.196 65.399 373.457 62.8426V85.4857C369.926 87.677 363.839 90.3552 353.126 90.3552C321.84 90.3552 306.136 67.8338 306.136 45.4341C306.136 23.1562 321.718 1 352.274 1C364.448 1 368.465 3.31301 373.457 5.99123V28.6344C368.465 25.8344 363.718 23.0345 352.883 23.0345C336.692 23.0345 328.657 33.5039 328.657 45.4341Z"/>
<path d="M410.538 88.8943H389.356V1.9739H421.86C437.442 1.9739 449.738 12.3216 449.738 29.3648C449.738 42.3907 442.434 51.521 432.086 55.0514L453.999 88.8943H430.868L410.538 56.7557V88.8943ZM410.538 38.0081H419.912C425.999 38.0081 428.677 34.4778 428.677 29.3648C428.677 24.2518 425.269 20.5997 419.912 20.5997H410.538V38.0081Z"/>
<path d="M490.726 88.8943H469.544V1.9739H490.726V88.8943Z"/>
<path d="M569.523 29.3648C569.523 46.408 557.228 56.6339 541.645 56.6339H530.324V88.8943H509.141V1.9739H541.645C557.228 1.9739 569.523 12.3216 569.523 29.3648ZM530.324 38.0081H539.698C545.784 38.0081 548.463 34.4778 548.463 29.3648C548.463 24.2518 545.054 20.5997 539.698 20.5997H530.324V38.0081Z"/>
<path d="M635.619 1.9739V20.5997H618.211V88.8943H597.15V20.5997H579.742V1.9739H635.619Z"/>
<path d="M673.555 88.8943H652.373V1.9739H673.555V88.8943Z"/>
<path d="M777.795 45.6776C777.795 70.3903 757.83 90.3552 733.117 90.3552C708.405 90.3552 688.44 70.3903 688.44 45.6776C688.44 20.9649 708.405 1 733.117 1C757.83 1 777.795 20.9649 777.795 45.6776ZM709.379 45.5559C709.379 58.7035 719.97 69.2946 733.117 69.2946C746.265 69.2946 756.856 58.7035 756.856 45.5559C756.856 32.4082 746.265 21.8171 733.117 21.8171C719.97 21.8171 709.379 32.4082 709.379 45.5559Z"/>
<path d="M854.687 53.1036V1.9739H875.869V88.8943H854.687L813.296 38.4951V88.8943H792.114V1.9739H811.47L854.687 53.1036Z"/>
</mask>
<path d="M55.1731 24.617C50.4253 21.6953 45.7993 19.6258 39.8342 19.6258C34.5995 19.6258 30.3387 22.1823 30.3387 27.0518C30.3387 30.5822 32.7734 33.1387 40.4429 34.2343C57.6078 36.7908 66.0077 48.1123 66.0077 61.3817C66.0077 75.625 55.0514 89.6248 34.356 89.6248C18.7736 89.6248 9.27814 84.7553 1 78.1814L11.5911 62.8426C17.4345 67.4686 24.3736 70.999 33.0169 70.999C39.9559 70.999 43.6081 66.8599 43.6081 62.2339C43.6081 56.3905 39.7125 52.7384 32.043 51.3992C14.2694 48.2341 7.2086 39.3473 7.2086 28.1474C7.2086 12.4433 19.7475 1.24348 38.982 1.24348C49.6949 1.24348 56.2687 3.79996 62.5991 7.45208L55.1731 24.617Z" stroke="white" mask="url(#path-1-outside-1_72_1924)"/>
<path d="M99.6057 58.8252C99.6057 67.3468 105.084 70.999 111.779 70.999C118.475 70.999 123.953 67.3468 123.953 58.8252V1.9739H145.135V61.1382C145.135 80.4945 129.918 89.7465 111.779 89.7465C93.7623 89.7465 78.5451 80.4945 78.5451 61.1382V1.9739H99.6057V58.8252Z" stroke="white" mask="url(#path-1-outside-1_72_1924)"/>
<path d="M215.896 25.3475C215.896 35.5734 212.243 40.4429 207.861 42.3907C216.261 44.7037 222.713 51.2775 222.713 63.6947C222.713 80.4945 211.026 88.8943 195.322 88.8943H161.114V1.9739H190.209C205.913 1.9739 215.896 11.3477 215.896 25.3475ZM182.296 35.4517H186.313C191.67 35.4517 194.835 32.4082 194.835 26.9301C194.835 21.8171 191.67 18.0432 186.313 18.0432H182.296V35.4517ZM182.296 72.7033H191.426C197.27 72.7033 201.652 69.1729 201.652 62.2339C201.652 55.5383 197.27 51.6427 191.426 51.6427H182.296V72.7033Z" stroke="white" mask="url(#path-1-outside-1_72_1924)"/>
<path d="M285.199 24.617C280.451 21.6953 275.825 19.6258 269.86 19.6258C264.625 19.6258 260.364 22.1823 260.364 27.0518C260.364 30.5822 262.799 33.1387 270.468 34.2343C287.633 36.7908 296.033 48.1123 296.033 61.3817C296.033 75.625 285.077 89.6248 264.382 89.6248C248.799 89.6248 239.304 84.7553 231.026 78.1814L241.617 62.8426C247.46 67.4686 254.399 70.999 263.042 70.999C269.981 70.999 273.634 66.8599 273.634 62.2339C273.634 56.3905 269.738 52.7384 262.069 51.3992C244.295 48.2341 237.234 39.3473 237.234 28.1474C237.234 12.4433 249.773 1.24348 269.008 1.24348C279.72 1.24348 286.294 3.79996 292.625 7.45208L285.199 24.617Z" stroke="white" mask="url(#path-1-outside-1_72_1924)"/>
<path d="M328.657 45.4341C328.657 57.3644 336.692 67.8338 352.883 67.8338C363.839 67.8338 369.196 65.399 373.457 62.8426V85.4857C369.926 87.677 363.839 90.3552 353.126 90.3552C321.84 90.3552 306.136 67.8338 306.136 45.4341C306.136 23.1562 321.718 1 352.274 1C364.448 1 368.465 3.31301 373.457 5.99123V28.6344C368.465 25.8344 363.718 23.0345 352.883 23.0345C336.692 23.0345 328.657 33.5039 328.657 45.4341Z" stroke="white" mask="url(#path-1-outside-1_72_1924)"/>
<path d="M410.538 88.8943H389.356V1.9739H421.86C437.442 1.9739 449.738 12.3216 449.738 29.3648C449.738 42.3907 442.434 51.521 432.086 55.0514L453.999 88.8943H430.868L410.538 56.7557V88.8943ZM410.538 38.0081H419.912C425.999 38.0081 428.677 34.4778 428.677 29.3648C428.677 24.2518 425.269 20.5997 419.912 20.5997H410.538V38.0081Z" stroke="white" mask="url(#path-1-outside-1_72_1924)"/>
<path d="M490.726 88.8943H469.544V1.9739H490.726V88.8943Z" stroke="white" mask="url(#path-1-outside-1_72_1924)"/>
<path d="M569.523 29.3648C569.523 46.408 557.228 56.6339 541.645 56.6339H530.324V88.8943H509.141V1.9739H541.645C557.228 1.9739 569.523 12.3216 569.523 29.3648ZM530.324 38.0081H539.698C545.784 38.0081 548.463 34.4778 548.463 29.3648C548.463 24.2518 545.054 20.5997 539.698 20.5997H530.324V38.0081Z" stroke="white" mask="url(#path-1-outside-1_72_1924)"/>
<path d="M635.619 1.9739V20.5997H618.211V88.8943H597.15V20.5997H579.742V1.9739H635.619Z" stroke="white" mask="url(#path-1-outside-1_72_1924)"/>
<path d="M673.555 88.8943H652.373V1.9739H673.555V88.8943Z" stroke="white" mask="url(#path-1-outside-1_72_1924)"/>
<path d="M777.795 45.6776C777.795 70.3903 757.83 90.3552 733.117 90.3552C708.405 90.3552 688.44 70.3903 688.44 45.6776C688.44 20.9649 708.405 1 733.117 1C757.83 1 777.795 20.9649 777.795 45.6776ZM709.379 45.5559C709.379 58.7035 719.97 69.2946 733.117 69.2946C746.265 69.2946 756.856 58.7035 756.856 45.5559C756.856 32.4082 746.265 21.8171 733.117 21.8171C719.97 21.8171 709.379 32.4082 709.379 45.5559Z" stroke="white" mask="url(#path-1-outside-1_72_1924)"/>
<path d="M854.687 53.1036V1.9739H875.869V88.8943H854.687L813.296 38.4951V88.8943H792.114V1.9739H811.47L854.687 53.1036Z" stroke="white" mask="url(#path-1-outside-1_72_1924)"/>
</svg>
