<svg width="1346" height="182" viewBox="0 0 1346 182" fill="none" xmlns="http://www.w3.org/2000/svg">
<g filter="url(#filter0_b_206_619)">
<path d="M807.133 63.1532C795.622 67.9944 785.872 76.2501 779.2 86.8065C772.527 97.3629 769.253 109.712 769.82 122.187C770.386 134.663 774.766 146.664 782.368 156.573C789.969 166.481 800.427 173.819 812.33 177.597C824.233 181.375 837.009 181.411 848.933 177.7C860.857 173.989 871.356 166.71 879.014 156.844C886.671 146.979 891.118 135.002 891.754 122.53C892.391 110.058 889.187 97.6909 882.574 87.0971L868.076 96.1471C872.837 103.775 875.144 112.679 874.686 121.659C874.227 130.639 871.026 139.262 865.512 146.365C859.999 153.468 852.44 158.709 843.855 161.381C835.269 164.053 826.071 164.027 817.5 161.307C808.93 158.587 801.401 153.303 795.927 146.169C790.454 139.035 787.301 130.394 786.893 121.412C786.485 112.43 788.842 103.538 793.646 95.9379C798.451 88.3373 805.47 82.3931 813.759 78.9075L807.133 63.1532Z" fill="white"/>
<path d="M875.729 29.5516C875.729 22.0848 865.738 11.9695 860.201 8.23769C854.663 4.50588 848.368 2.04219 841.766 1.02293C835.163 0.00367731 828.416 0.454047 822.009 2.34181C815.601 4.22958 809.69 7.50808 804.699 11.9427C799.709 16.3773 795.762 21.8584 793.141 27.9938C790.519 34.1292 789.289 40.7671 789.537 47.4326C789.786 54.0982 791.507 60.6265 794.578 66.5504C797.648 72.4743 854.894 176.969 860.201 181.021L875.729 181.021C872.014 178.184 808.805 64.457 806.656 60.3102C804.506 56.1635 803.302 51.5937 803.128 46.9278C802.954 42.2619 803.815 37.6154 805.65 33.3206C807.485 29.0258 810.248 25.1891 813.741 22.0848C817.234 18.9806 821.372 16.6857 825.857 15.3642C830.343 14.0428 835.066 13.7275 839.687 14.441C844.309 15.1545 848.716 16.8791 852.592 19.4913C856.468 22.1036 859.718 25.539 862.109 29.5516H875.729Z" fill="white"/>
<path d="M90.2397 41.9081C105.499 41.9081 118.82 49.1742 127.539 60.3156L161.448 37.064C144.978 14.7813 118.82 0.491241 89.5131 0.491241C40.3457 0.491241 0.624268 40.2127 0.624268 89.3801C0.624268 138.548 40.3457 178.269 89.5131 178.269C119.267 178.269 145.562 163.722 161.688 141.338V79.4497H93.8728V111.663H131.657C123.664 126.437 108.163 136.367 90.2397 136.367C64.0817 136.367 43.01 115.296 43.01 89.1379C43.01 62.9799 64.0817 41.9081 90.2397 41.9081Z" fill="white"/>
<path fill-rule="evenodd" clip-rule="evenodd" d="M185.278 175.362H227.422V111.421L267.87 175.362H313.889L270.292 108.03C290.879 101.006 305.411 82.8406 305.411 56.9248C305.411 23.0162 280.949 2.42888 249.947 2.42888H185.278V175.362ZM246.071 74.1212H227.422V39.4861H246.071C256.728 39.4861 263.51 46.7522 263.51 56.9248C263.51 67.0973 258.182 74.1212 246.071 74.1212Z" fill="white"/>
<path fill-rule="evenodd" clip-rule="evenodd" d="M495.536 89.3801C495.536 138.548 455.814 178.269 406.647 178.269C357.48 178.269 317.758 138.548 317.758 89.3801C317.758 40.2127 357.48 0.491241 406.647 0.491241C455.814 0.491241 495.536 40.2127 495.536 89.3801ZM359.417 89.1379C359.417 115.296 380.489 136.367 406.647 136.367C432.805 136.367 453.877 115.296 453.877 89.1379C453.877 62.9799 432.805 41.9081 406.647 41.9081C380.489 41.9081 359.417 62.9799 359.417 89.1379Z" fill="white"/>
<path d="M587.791 2.42888L560.18 102.459L535.717 2.42888H493.574L540.077 175.362H573.743L603.05 81.6296L632.114 175.362H665.538L714.464 2.42888H672.562L645.678 102.459L620.004 2.42888H587.791Z" fill="white"/>
<path d="M1241.19 165.189H1345.49V179.964H1226.42V7.03063H1241.19V165.189Z" fill="white"/>
<path d="M1345.49 132.492H1273.41V7.03063L1258.63 7.03067V147.267L1345.49 147.261V132.492Z" fill="white"/>
<path d="M956.116 23.3298V7.75859H1018.25C1027.04 7.75859 1034.88 9.83057 1041.79 13.9745C1048.66 18.0766 1054.08 23.874 1058.05 31.3666C1061.99 38.8592 1063.96 47.6494 1063.96 57.7372C1063.96 67.825 1061.99 76.6152 1058.05 84.1078C1054.08 91.6005 1048.66 97.4187 1041.79 101.563C1034.88 105.665 1027.04 107.716 1018.25 107.716H956.116V92.1446H1016.99C1023.27 92.1446 1028.86 90.7633 1033.75 88.0007C1038.61 85.238 1042.44 81.3034 1045.24 76.1967C1048.01 71.0481 1049.39 64.895 1049.39 57.7372C1049.39 50.5795 1048.01 44.4263 1045.24 39.2778C1042.44 34.1292 1038.61 30.1946 1033.75 27.4738C1028.86 24.7111 1023.27 23.3298 1016.99 23.3298H956.116Z" fill="white"/>
<path d="M1178.41 7.75167L1193.98 7.75858L1193.94 132.79C1193.94 141.835 1191.86 149.91 1187.72 157.015C1183.61 164.076 1177.81 169.651 1170.32 173.74C1162.82 177.785 1154.03 179.805 1143.94 179.801C1133.86 179.796 1125.07 177.768 1117.58 173.716C1110.08 169.621 1104.27 164.041 1100.13 156.976C1096.03 149.867 1093.98 141.791 1093.99 132.746L1093.99 7.74564L1109.56 7.75256L1109.56 131.461C1109.55 137.921 1110.93 143.672 1113.69 148.712C1116.45 153.71 1120.39 157.652 1125.49 160.54C1130.64 163.385 1136.79 164.809 1143.95 164.812C1151.11 164.815 1157.26 163.397 1162.41 160.557C1167.56 157.673 1171.5 153.734 1174.22 148.739C1176.99 143.701 1178.37 137.952 1178.37 131.491L1178.41 7.75167Z" fill="white"/>
<path d="M858.188 83.7717H896.452V97.2767H858.188V83.7717Z" fill="white"/>
<path d="M952.723 7.80642H968.479V181.12H952.723V7.80642Z" fill="white"/>
<path d="M121.043 90.5242H151.429V142.293H121.043V90.5242Z" fill="white"/>
</g>
<defs>
<filter id="filter0_b_206_619" x="-10.4913" y="-10.6244" width="1367.1" height="202.86" filterUnits="userSpaceOnUse" color-interpolation-filters="sRGB">
<feFlood flood-opacity="0" result="BackgroundImageFix"/>
<feGaussianBlur in="BackgroundImageFix" stdDeviation="5.5578"/>
<feComposite in2="SourceAlpha" operator="in" result="effect1_backgroundBlur_206_619"/>
<feBlend mode="normal" in="SourceGraphic" in2="effect1_backgroundBlur_206_619" result="shape"/>
</filter>
</defs>
</svg>
