<svg width="181" height="25" viewBox="0 0 181 25" fill="none" xmlns="http://www.w3.org/2000/svg">
<g filter="url(#filter0_b_160_2497)">
<path d="M108.424 8.42405C106.877 9.07489 105.566 10.1848 104.669 11.6039C103.772 13.0231 103.332 14.6832 103.408 16.3604C103.484 18.0376 104.073 19.651 105.095 20.983C106.117 22.315 107.523 23.3016 109.123 23.8095C110.723 24.3173 112.441 24.3222 114.044 23.8233C115.647 23.3244 117.058 22.3458 118.088 21.0195C119.117 19.6933 119.715 18.0832 119.8 16.4065C119.886 14.7298 119.455 13.0672 118.566 11.643L116.617 12.8596C117.257 13.8851 117.567 15.0821 117.506 16.2894C117.444 17.4966 117.014 18.6559 116.273 19.6108C115.531 20.5657 114.515 21.2703 113.361 21.6295C112.207 21.9887 110.97 21.9852 109.818 21.6195C108.666 21.2538 107.654 20.5435 106.918 19.5845C106.182 18.6254 105.758 17.4637 105.703 16.2562C105.648 15.0486 105.965 13.8533 106.611 12.8315C107.257 11.8097 108.201 11.0106 109.315 10.542L108.424 8.42405Z" fill="white"/>
<path d="M117.646 3.90678C117.646 2.90297 116.303 1.5431 115.558 1.04141C114.814 0.539713 113.968 0.208504 113.08 0.0714789C112.192 -0.0655464 111.285 -0.00500034 110.424 0.248785C109.563 0.50257 108.768 0.943319 108.097 1.53949C107.426 2.13567 106.896 2.87253 106.543 3.69735C106.191 4.52216 106.025 5.41455 106.059 6.31064C106.092 7.20673 106.324 8.08437 106.736 8.88076C107.149 9.67716 114.845 23.7251 115.558 24.2698L117.646 24.2698C117.147 23.8885 108.649 8.59933 108.36 8.04185C108.071 7.48438 107.909 6.87003 107.886 6.24277C107.862 5.6155 107.978 4.99084 108.225 4.41346C108.471 3.83609 108.843 3.32029 109.313 2.90297C109.782 2.48565 110.338 2.17712 110.941 1.99947C111.544 1.82182 112.179 1.77944 112.801 1.87536C113.422 1.97127 114.014 2.20312 114.536 2.55431C115.057 2.90549 115.494 3.36733 115.815 3.90678H117.646Z" fill="white"/>
<path d="M12.0476 5.56794C14.0989 5.56794 15.8898 6.54477 17.062 8.04258L21.6205 4.91672C19.4064 1.9211 15.8898 0 11.9499 0C5.34001 0 0 5.34002 0 11.9499C0 18.5598 5.34001 23.8998 11.9499 23.8998C15.9499 23.8998 19.4849 21.9442 21.6528 18.935V10.6149H12.536V14.9455H17.6155C16.541 16.9317 14.4571 18.2667 12.0476 18.2667C8.531 18.2667 5.69818 15.4339 5.69818 11.9173C5.69818 8.40076 8.531 5.56794 12.0476 5.56794Z" fill="white"/>
<path fill-rule="evenodd" clip-rule="evenodd" d="M24.8242 23.509H30.4899V14.913L35.9276 23.509H42.1142L36.2532 14.4571C39.0209 13.5128 40.9745 11.0708 40.9745 7.58672C40.9745 3.02818 37.6859 0.260489 33.518 0.260489H24.8242V23.509ZM32.9971 9.89856H30.4899V5.24233H32.9971C34.4297 5.24233 35.3415 6.21916 35.3415 7.58672C35.3415 8.95429 34.6251 9.89856 32.9971 9.89856Z" fill="white"/>
<path fill-rule="evenodd" clip-rule="evenodd" d="M66.5342 11.9499C66.5342 18.5598 61.1942 23.8998 54.5843 23.8998C47.9744 23.8998 42.6344 18.5598 42.6344 11.9499C42.6344 5.34002 47.9744 0 54.5843 0C61.1942 0 66.5342 5.34002 66.5342 11.9499ZM48.2349 11.9173C48.2349 15.4339 51.0677 18.2667 54.5843 18.2667C58.1009 18.2667 60.9337 15.4339 60.9337 11.9173C60.9337 8.40076 58.1009 5.56794 54.5843 5.56794C51.0677 5.56794 48.2349 8.40076 48.2349 11.9173Z" fill="white"/>
<path d="M78.9366 0.260489L75.2247 13.7082L71.936 0.260489H66.2704L72.5221 23.509H77.0481L80.988 10.908L84.8953 23.509H89.3887L95.9661 0.260489H90.333L86.7187 13.7082L83.2672 0.260489H78.9366Z" fill="white"/>
<path d="M166.778 22.1415H180.799V24.1277H164.791V0.879132H166.778V22.1415Z" fill="white"/>
<path d="M180.799 17.7457H171.108V0.879132L169.122 0.879138V19.732L180.799 19.7312V17.7457Z" fill="white"/>
<path d="M128.453 3.07034V0.976997H136.806C137.987 0.976997 139.042 1.25555 139.971 1.81265C140.894 2.36412 141.622 3.14349 142.157 4.15077C142.686 5.15805 142.951 6.33978 142.951 7.69595C142.951 9.05212 142.686 10.2338 142.157 11.2411C141.622 12.2484 140.894 13.0306 139.971 13.5877C139.042 14.1392 137.987 14.4149 136.806 14.4149H128.453V12.3216H136.637C137.481 12.3216 138.232 12.1359 138.89 11.7645C139.543 11.3931 140.058 10.8641 140.435 10.1776C140.807 9.48542 140.992 8.65821 140.992 7.69595C140.992 6.73369 140.807 5.90648 140.435 5.21433C140.058 4.52217 139.543 3.99321 138.89 3.62744C138.232 3.25604 137.481 3.07034 136.637 3.07034H128.453Z" fill="white"/>
<path d="M158.337 0.976066L160.431 0.976996L160.426 17.7858C160.425 19.0018 160.146 20.0873 159.589 21.0424C159.037 21.9918 158.257 22.7413 157.249 23.2909C156.242 23.8347 155.06 24.1064 153.704 24.1057C152.348 24.1051 151.166 23.8325 150.159 23.2878C149.152 22.7372 148.37 21.9871 147.813 21.0372C147.262 20.0816 146.987 18.9958 146.988 17.7799L146.988 0.975257L149.081 0.976186L149.081 17.6071C149.081 18.4756 149.266 19.2487 149.637 19.9263C150.008 20.5981 150.537 21.1282 151.223 21.5164C151.915 21.8989 152.742 22.0903 153.705 22.0907C154.667 22.0912 155.494 21.9005 156.187 21.5186C156.879 21.131 157.408 20.6014 157.774 19.9299C158.146 19.2526 158.332 18.4797 158.332 17.6112L158.337 0.976066Z" fill="white"/>
<path d="M115.288 11.1959H120.432V13.0115H115.288V11.1959Z" fill="white"/>
<path d="M127.997 0.983427H130.115V24.2831H127.997V0.983427Z" fill="white"/>
<path d="M16.1887 12.1037H20.2737V19.0634H16.1887V12.1037Z" fill="white"/>
</g>
<defs>
<filter id="filter0_b_160_2497" x="-1.49434" y="-1.49434" width="183.788" height="27.2718" filterUnits="userSpaceOnUse" color-interpolation-filters="sRGB">
<feFlood flood-opacity="0" result="BackgroundImageFix"/>
<feGaussianBlur in="BackgroundImageFix" stdDeviation="0.747172"/>
<feComposite in2="SourceAlpha" operator="in" result="effect1_backgroundBlur_160_2497"/>
<feBlend mode="normal" in="SourceGraphic" in2="effect1_backgroundBlur_160_2497" result="shape"/>
</filter>
</defs>
</svg>
