<svg width="689" height="1024" viewBox="0 0 689 1024" fill="none" xmlns="http://www.w3.org/2000/svg">
<g filter="url(#filter0_b_1_272)">
<path d="M412.701 859.155C406.81 861.632 401.821 865.857 398.407 871.259C394.993 876.661 393.317 882.98 393.607 889.364C393.897 895.748 396.138 901.889 400.028 906.959C403.918 912.029 409.269 915.784 415.36 917.717C421.451 919.651 427.989 919.669 434.091 917.77C440.192 915.871 445.565 912.146 449.483 907.098C453.401 902.05 455.677 895.921 456.003 889.539C456.328 883.157 454.689 876.829 451.305 871.408L443.886 876.039C446.323 879.942 447.503 884.498 447.269 889.093C447.034 893.688 445.396 898.101 442.574 901.736C439.753 905.37 435.885 908.052 431.492 909.42C427.099 910.787 422.392 910.774 418.006 909.382C413.621 907.99 409.767 905.286 406.967 901.636C404.166 897.985 402.553 893.563 402.344 888.967C402.135 884.371 403.341 879.821 405.8 875.931C408.258 872.042 411.85 869 416.091 867.217L412.701 859.155Z" fill="#474747"/>
<path d="M447.802 841.961C447.802 838.14 442.69 832.964 439.856 831.054C437.023 829.145 433.801 827.884 430.423 827.362C427.044 826.841 423.592 827.071 420.313 828.037C417.034 829.003 414.009 830.681 411.456 832.95C408.902 835.219 406.882 838.024 405.541 841.164C404.199 844.303 403.57 847.7 403.697 851.111C403.824 854.522 404.705 857.862 406.276 860.894C407.847 863.925 437.141 917.396 439.856 919.47L447.802 919.47C445.901 918.018 413.557 859.822 412.457 857.7C411.357 855.578 410.74 853.24 410.651 850.852C410.562 848.465 411.003 846.087 411.942 843.889C412.881 841.692 414.295 839.728 416.082 838.14C417.87 836.551 419.987 835.377 422.282 834.701C424.578 834.025 426.994 833.863 429.359 834.228C431.724 834.594 433.979 835.476 435.963 836.813C437.946 838.15 439.609 839.907 440.833 841.961H447.802Z" fill="#474747"/>
<path d="M45.8574 848.284C53.6655 848.284 60.4822 852.002 64.944 857.703L82.2954 845.805C73.8676 834.403 60.4822 827.09 45.4856 827.09C20.326 827.09 0 847.416 0 872.576C0 897.735 20.326 918.061 45.4856 918.061C60.7111 918.061 74.1665 910.617 82.4184 899.163V867.494H47.7165V883.978H67.0509C62.9609 891.538 55.0289 896.62 45.8574 896.62C32.472 896.62 21.6893 885.837 21.6893 872.452C21.6893 859.066 32.472 848.284 45.8574 848.284Z" fill="#474747"/>
<path fill-rule="evenodd" clip-rule="evenodd" d="M94.4898 916.574H116.055V883.854L136.753 916.574H160.301L137.992 882.119C148.527 878.525 155.963 869.229 155.963 855.968C155.963 838.617 143.446 828.082 127.581 828.082H94.4898V916.574ZM125.598 864.768H116.055V847.044H125.598C131.052 847.044 134.522 850.763 134.522 855.968C134.522 861.173 131.795 864.768 125.598 864.768Z" fill="#474747"/>
<path fill-rule="evenodd" clip-rule="evenodd" d="M253.253 872.576C253.253 897.735 232.927 918.061 207.767 918.061C182.607 918.061 162.281 897.735 162.281 872.576C162.281 847.416 182.607 827.09 207.767 827.09C232.927 827.09 253.253 847.416 253.253 872.576ZM183.599 872.452C183.599 885.837 194.382 896.62 207.767 896.62C221.152 896.62 231.935 885.837 231.935 872.452C231.935 859.066 221.152 848.284 207.767 848.284C194.382 848.284 183.599 859.066 183.599 872.452Z" fill="#474747"/>
<path d="M300.461 828.082L286.332 879.268L273.814 828.082H252.248L276.045 916.574H293.272L308.269 868.61L323.141 916.574H340.245L365.281 828.082H343.839L330.082 879.268L316.945 828.082H300.461Z" fill="#474747"/>
<path d="M634.815 911.368H688.186V918.929H627.255V830.436H634.815V911.368Z" fill="#474747"/>
<path d="M688.186 894.637H651.299V830.436L643.738 830.437V902.197L688.186 902.194V894.637Z" fill="#474747"/>
<path d="M488.937 838.777V830.809H520.73C525.228 830.809 529.244 831.869 532.779 833.99C536.291 836.089 539.065 839.055 541.1 842.89C543.113 846.724 544.12 851.222 544.12 856.384C544.12 861.546 543.113 866.044 541.1 869.878C539.065 873.712 536.291 876.689 532.779 878.81C529.244 880.909 525.228 881.958 520.73 881.958H488.937V873.99H520.088C523.3 873.99 526.16 873.284 528.666 871.87C531.151 870.456 533.111 868.443 534.546 865.83C535.959 863.195 536.666 860.046 536.666 856.384C536.666 852.721 535.959 849.572 534.546 846.938C533.111 844.303 531.151 842.29 528.666 840.898C526.16 839.484 523.3 838.777 520.088 838.777H488.937Z" fill="#474747"/>
<path d="M602.688 830.805L610.656 830.809L610.636 894.789C610.634 899.418 609.572 903.55 607.45 907.185C605.349 910.799 602.382 913.652 598.547 915.744C594.712 917.814 590.213 918.848 585.051 918.845C579.889 918.843 575.391 917.805 571.558 915.732C567.725 913.636 564.749 910.781 562.63 907.165C560.533 903.528 559.485 899.395 559.487 894.767L559.488 830.802L567.456 830.806L567.455 894.109C567.454 897.415 568.159 900.358 569.572 902.937C570.984 905.494 572.997 907.511 575.609 908.989C578.243 910.445 581.392 911.174 585.055 911.175C588.717 911.177 591.866 910.451 594.501 908.998C597.137 907.522 599.151 905.507 600.544 902.951C601.959 900.373 602.667 897.431 602.669 894.125L602.688 830.805Z" fill="#474747"/>
<path d="M438.827 869.706H458.407V876.617H438.827V869.706Z" fill="#474747"/>
<path d="M487.201 830.833H495.264V919.52H487.201V830.833Z" fill="#474747"/>
<path d="M61.62 873.161H77.169V899.652H61.62V873.161Z" fill="#474747"/>
</g>
<g filter="url(#filter1_b_1_272)">
<path d="M412.701 980.025C406.81 982.502 401.821 986.727 398.407 992.128C394.993 997.53 393.317 1003.85 393.607 1010.23C393.897 1016.62 396.138 1022.76 400.028 1027.83C403.918 1032.9 409.269 1036.65 415.36 1038.59C421.451 1040.52 427.989 1040.54 434.091 1038.64C440.192 1036.74 445.565 1033.02 449.483 1027.97C453.401 1022.92 455.677 1016.79 456.003 1010.41C456.328 1004.03 454.689 997.698 451.305 992.277L443.886 996.908C446.323 1000.81 447.503 1005.37 447.269 1009.96C447.034 1014.56 445.396 1018.97 442.574 1022.61C439.753 1026.24 435.885 1028.92 431.492 1030.29C427.099 1031.66 422.392 1031.64 418.006 1030.25C413.621 1028.86 409.767 1026.16 406.967 1022.51C404.166 1018.85 402.553 1014.43 402.344 1009.84C402.135 1005.24 403.341 1000.69 405.8 996.801C408.258 992.912 411.85 989.87 416.091 988.086L412.701 980.025Z" fill="#303030"/>
<path d="M447.802 962.83C447.802 959.01 442.69 953.833 439.856 951.924C437.023 950.014 433.801 948.753 430.423 948.232C427.044 947.71 423.592 947.941 420.313 948.907C417.034 949.873 414.009 951.55 411.456 953.82C408.902 956.089 406.882 958.894 405.541 962.033C404.199 965.173 403.57 968.57 403.697 971.98C403.824 975.391 404.705 978.732 406.276 981.763C407.847 984.795 437.141 1038.27 439.856 1040.34L447.802 1040.34C445.901 1038.89 413.557 980.692 412.457 978.57C411.357 976.448 410.74 974.11 410.651 971.722C410.562 969.334 411.003 966.957 411.942 964.759C412.881 962.561 414.295 960.598 416.082 959.01C417.87 957.421 419.987 956.247 422.282 955.571C424.578 954.894 426.994 954.733 429.359 955.098C431.724 955.463 433.979 956.346 435.963 957.682C437.946 959.019 439.609 960.777 440.833 962.83H447.802Z" fill="#303030"/>
<path d="M45.8574 969.153C53.6655 969.153 60.4822 972.872 64.944 978.573L82.2954 966.675C73.8676 955.272 60.4822 947.96 45.4856 947.96C20.326 947.96 0 968.286 0 993.445C0 1018.61 20.326 1038.93 45.4856 1038.93C60.7111 1038.93 74.1665 1031.49 82.4184 1020.03V988.364H47.7165V1004.85H67.0509C62.9609 1012.41 55.0289 1017.49 45.8574 1017.49C32.472 1017.49 21.6893 1006.71 21.6893 993.321C21.6893 979.936 32.472 969.153 45.8574 969.153Z" fill="#303030"/>
<path fill-rule="evenodd" clip-rule="evenodd" d="M94.4898 1037.44H116.055V1004.72L136.753 1037.44H160.301L137.992 1002.99C148.527 999.394 155.963 990.099 155.963 976.838C155.963 959.486 143.446 948.951 127.581 948.951H94.4898V1037.44ZM125.598 985.637H116.055V967.914H125.598C131.052 967.914 134.522 971.632 134.522 976.838C134.522 982.043 131.795 985.637 125.598 985.637Z" fill="#303030"/>
<path fill-rule="evenodd" clip-rule="evenodd" d="M253.253 993.445C253.253 1018.61 232.927 1038.93 207.767 1038.93C182.607 1038.93 162.281 1018.61 162.281 993.445C162.281 968.286 182.607 947.96 207.767 947.96C232.927 947.96 253.253 968.286 253.253 993.445ZM183.599 993.321C183.599 1006.71 194.382 1017.49 207.767 1017.49C221.152 1017.49 231.935 1006.71 231.935 993.321C231.935 979.936 221.152 969.153 207.767 969.153C194.382 969.153 183.599 979.936 183.599 993.321Z" fill="#303030"/>
<path d="M300.461 948.951L286.332 1000.14L273.814 948.951H252.248L276.045 1037.44H293.272L308.269 989.479L323.141 1037.44H340.245L365.281 948.951H343.839L330.082 1000.14L316.945 948.951H300.461Z" fill="#303030"/>
<path d="M634.815 1032.24H688.186V1039.8H627.255V951.306H634.815V1032.24Z" fill="#303030"/>
<path d="M688.186 1015.51H651.299V951.306L643.738 951.306V1023.07L688.186 1023.06V1015.51Z" fill="#303030"/>
<path d="M488.937 959.647V951.679H520.73C525.228 951.679 529.244 952.739 532.779 954.859C536.291 956.959 539.065 959.925 541.1 963.759C543.113 967.593 544.12 972.091 544.12 977.253C544.12 982.415 543.113 986.913 541.1 990.748C539.065 994.582 536.291 997.559 532.779 999.679C529.244 1001.78 525.228 1002.83 520.73 1002.83H488.937V994.86H520.088C523.3 994.86 526.16 994.153 528.666 992.74C531.151 991.326 533.111 989.312 534.546 986.699C535.959 984.065 536.666 980.916 536.666 977.253C536.666 973.591 535.959 970.442 534.546 967.807C533.111 965.173 531.151 963.159 528.666 961.767C526.16 960.353 523.3 959.647 520.088 959.647H488.937Z" fill="#303030"/>
<path d="M602.688 951.675L610.656 951.679L610.636 1015.66C610.634 1020.29 609.572 1024.42 607.45 1028.05C605.349 1031.67 602.382 1034.52 598.547 1036.61C594.712 1038.68 590.213 1039.72 585.051 1039.71C579.889 1039.71 575.391 1038.67 571.558 1036.6C567.725 1034.51 564.749 1031.65 562.63 1028.03C560.533 1024.4 559.485 1020.26 559.487 1015.64L559.488 951.672L567.456 951.676L567.455 1014.98C567.454 1018.28 568.159 1021.23 569.572 1023.81C570.984 1026.36 572.997 1028.38 575.609 1029.86C578.243 1031.31 581.392 1032.04 585.055 1032.05C588.717 1032.05 591.866 1031.32 594.501 1029.87C597.137 1028.39 599.151 1026.38 600.544 1023.82C601.959 1021.24 602.667 1018.3 602.669 1014.99L602.688 951.675Z" fill="#303030"/>
<path d="M438.827 990.576H458.407V997.486H438.827V990.576Z" fill="#303030"/>
<path d="M487.201 951.703H495.264V1040.39H487.201V951.703Z" fill="#303030"/>
<path d="M61.62 994.031H77.169V1020.52H61.62V994.031Z" fill="#303030"/>
</g>
<g filter="url(#filter2_b_1_272)">
<path d="M412.701 738.285C406.81 740.762 401.821 744.987 398.407 750.388C394.993 755.79 393.317 762.109 393.607 768.493C393.897 774.877 396.138 781.018 400.028 786.089C403.918 791.159 409.269 794.914 415.36 796.847C421.451 798.78 427.989 798.799 434.091 796.9C440.192 795.001 445.565 791.276 449.483 786.228C453.401 781.179 455.677 775.051 456.003 768.669C456.328 762.287 454.689 755.958 451.305 750.537L443.886 755.168C446.323 759.071 447.503 763.628 447.269 768.223C447.034 772.818 445.396 777.231 442.574 780.865C439.753 784.5 435.885 787.182 431.492 788.549C427.099 789.916 422.392 789.903 418.006 788.511C413.621 787.119 409.767 784.416 406.967 780.765C404.166 777.115 402.553 772.693 402.344 768.097C402.135 763.5 403.341 758.95 405.8 755.061C408.258 751.172 411.85 748.13 416.091 746.346L412.701 738.285Z" fill="#5E5E5E"/>
<path d="M447.802 721.09C447.802 717.27 442.69 712.093 439.856 710.184C437.023 708.274 433.801 707.013 430.423 706.492C427.044 705.97 423.592 706.201 420.313 707.167C417.034 708.133 414.009 709.81 411.456 712.08C408.902 714.349 406.882 717.154 405.541 720.293C404.199 723.433 403.57 726.829 403.697 730.24C403.824 733.651 404.705 736.992 406.276 740.023C407.847 743.054 437.141 796.526 439.856 798.599L447.802 798.599C445.901 797.148 413.557 738.952 412.457 736.83C411.357 734.708 410.74 732.37 410.651 729.982C410.562 727.594 411.003 725.217 411.942 723.019C412.881 720.821 414.295 718.858 416.082 717.27C417.87 715.681 419.987 714.507 422.282 713.83C424.578 713.154 426.994 712.993 429.359 713.358C431.724 713.723 433.979 714.606 435.963 715.942C437.946 717.279 439.609 719.037 440.833 721.09H447.802Z" fill="#5E5E5E"/>
<path d="M45.8574 727.413C53.6655 727.413 60.4822 731.132 64.944 736.833L82.2954 724.935C73.8676 713.532 60.4822 706.22 45.4856 706.22C20.326 706.22 0 726.546 0 751.705C0 776.865 20.326 797.191 45.4856 797.191C60.7111 797.191 74.1665 789.747 82.4184 778.293V746.624H47.7165V763.108H67.0509C62.9609 770.668 55.0289 775.749 45.8574 775.749C32.472 775.749 21.6893 764.967 21.6893 751.581C21.6893 738.196 32.472 727.413 45.8574 727.413Z" fill="#5E5E5E"/>
<path fill-rule="evenodd" clip-rule="evenodd" d="M94.4898 795.703H116.055V762.984L136.753 795.703H160.301L137.992 761.249C148.527 757.654 155.963 748.359 155.963 735.098C155.963 717.746 143.446 707.211 127.581 707.211H94.4898V795.703ZM125.598 743.897H116.055V726.174H125.598C131.052 726.174 134.522 729.892 134.522 735.098C134.522 740.303 131.795 743.897 125.598 743.897Z" fill="#5E5E5E"/>
<path fill-rule="evenodd" clip-rule="evenodd" d="M253.253 751.705C253.253 776.865 232.927 797.191 207.767 797.191C182.607 797.191 162.281 776.865 162.281 751.705C162.281 726.546 182.607 706.22 207.767 706.22C232.927 706.22 253.253 726.546 253.253 751.705ZM183.599 751.581C183.599 764.967 194.382 775.749 207.767 775.749C221.152 775.749 231.935 764.967 231.935 751.581C231.935 738.196 221.152 727.413 207.767 727.413C194.382 727.413 183.599 738.196 183.599 751.581Z" fill="#5E5E5E"/>
<path d="M300.461 707.211L286.332 758.398L273.814 707.211H252.248L276.045 795.703H293.272L308.269 747.739L323.141 795.703H340.245L365.281 707.211H343.839L330.082 758.398L316.945 707.211H300.461Z" fill="#5E5E5E"/>
<path d="M634.815 790.498H688.186V798.058H627.255V709.566H634.815V790.498Z" fill="#5E5E5E"/>
<path d="M688.186 773.766H651.299V709.566L643.738 709.566V781.327L688.186 781.324V773.766Z" fill="#5E5E5E"/>
<path d="M488.937 717.907V709.939H520.73C525.228 709.939 529.244 710.999 532.779 713.119C536.291 715.218 539.065 718.185 541.1 722.019C543.113 725.853 544.12 730.351 544.12 735.513C544.12 740.675 543.113 745.173 541.1 749.007C539.065 752.842 536.291 755.819 532.779 757.939C529.244 760.038 525.228 761.088 520.73 761.088H488.937V753.12H520.088C523.3 753.12 526.16 752.413 528.666 750.999C531.151 749.586 533.111 747.572 534.546 744.959C535.959 742.325 536.666 739.176 536.666 735.513C536.666 731.851 535.959 728.702 534.546 726.067C533.111 723.433 531.151 721.419 528.666 720.027C526.16 718.613 523.3 717.907 520.088 717.907H488.937Z" fill="#5E5E5E"/>
<path d="M602.688 709.935L610.656 709.939L610.636 773.919C610.634 778.547 609.572 782.679 607.45 786.315C605.349 789.928 602.382 792.781 598.547 794.873C594.712 796.943 590.213 797.977 585.051 797.975C579.889 797.972 575.391 796.935 571.558 794.861C567.725 792.766 564.749 789.91 562.63 786.295C560.533 782.657 559.485 778.525 559.487 773.896L559.488 709.932L567.456 709.935L567.455 773.239C567.454 776.545 568.159 779.487 569.572 782.066C570.984 784.624 572.997 786.641 575.609 788.119C578.243 789.575 581.392 790.303 585.055 790.305C588.717 790.307 591.866 789.581 594.501 788.127C597.137 786.652 599.151 784.636 600.544 782.08C601.959 779.502 602.667 776.56 602.669 773.254L602.688 709.935Z" fill="#5E5E5E"/>
<path d="M438.827 748.835H458.407V755.746H438.827V748.835Z" fill="#5E5E5E"/>
<path d="M487.201 709.963H495.264V798.65H487.201V709.963Z" fill="#5E5E5E"/>
<path d="M61.62 752.291H77.169V778.782H61.62V752.291Z" fill="#5E5E5E"/>
</g>
<g filter="url(#filter3_b_1_272)">
<path d="M412.701 133.935C406.81 136.412 401.821 140.637 398.407 146.039C394.993 151.44 393.317 157.76 393.607 164.143C393.897 170.527 396.138 176.669 400.028 181.739C403.918 186.809 409.269 190.564 415.36 192.497C421.451 194.43 427.989 194.449 434.091 192.55C440.192 190.651 445.565 186.926 449.483 181.878C453.401 176.83 455.677 170.701 456.003 164.319C456.328 157.937 454.689 151.608 451.305 146.187L443.886 150.818C446.323 154.721 447.503 159.278 447.269 163.873C447.034 168.468 445.396 172.881 442.574 176.515C439.753 180.15 435.885 182.832 431.492 184.199C427.099 185.567 422.392 185.553 418.006 184.161C413.621 182.77 409.767 180.066 406.967 176.415C404.166 172.765 402.553 168.343 402.344 163.747C402.135 159.15 403.341 154.601 405.8 150.711C408.258 146.822 411.85 143.78 416.091 141.997L412.701 133.935Z" fill="#E2E2E2"/>
<path d="M447.802 116.741C447.802 112.92 442.69 107.744 439.856 105.834C437.023 103.924 433.801 102.664 430.423 102.142C427.044 101.621 423.592 101.851 420.313 102.817C417.034 103.783 414.009 105.461 411.456 107.73C408.902 109.999 406.882 112.804 405.541 115.943C404.199 119.083 403.57 122.48 403.697 125.891C403.824 129.301 404.705 132.642 406.276 135.673C407.847 138.705 437.141 192.176 439.856 194.249L447.802 194.249C445.901 192.798 413.557 134.602 412.457 132.48C411.357 130.358 410.74 128.02 410.651 125.632C410.562 123.245 411.003 120.867 411.942 118.669C412.881 116.472 414.295 114.508 416.082 112.92C417.87 111.331 419.987 110.157 422.282 109.481C424.578 108.804 426.994 108.643 429.359 109.008C431.724 109.373 433.979 110.256 435.963 111.593C437.946 112.929 439.609 114.687 440.833 116.741H447.802Z" fill="#E2E2E2"/>
<path d="M45.8574 123.064C53.6655 123.064 60.4822 126.782 64.944 132.483L82.2954 120.585C73.8676 109.182 60.4822 101.87 45.4856 101.87C20.326 101.87 0 122.196 0 147.356C0 172.515 20.326 192.841 45.4856 192.841C60.7111 192.841 74.1665 185.397 82.4184 173.943V142.274H47.7165V158.758H67.0509C62.9609 166.318 55.0289 171.4 45.8574 171.4C32.472 171.4 21.6893 160.617 21.6893 147.232C21.6893 133.846 32.472 123.064 45.8574 123.064Z" fill="#E2E2E2"/>
<path fill-rule="evenodd" clip-rule="evenodd" d="M94.4898 191.354H116.055V158.634L136.753 191.354H160.301L137.992 156.899C148.527 153.305 155.963 144.009 155.963 130.748C155.963 113.396 143.446 102.862 127.581 102.862H94.4898V191.354ZM125.598 139.547H116.055V121.824H125.598C131.052 121.824 134.522 125.542 134.522 130.748C134.522 135.953 131.795 139.547 125.598 139.547Z" fill="#E2E2E2"/>
<path fill-rule="evenodd" clip-rule="evenodd" d="M253.253 147.356C253.253 172.515 232.927 192.841 207.767 192.841C182.607 192.841 162.281 172.515 162.281 147.356C162.281 122.196 182.607 101.87 207.767 101.87C232.927 101.87 253.253 122.196 253.253 147.356ZM183.599 147.232C183.599 160.617 194.382 171.4 207.767 171.4C221.152 171.4 231.935 160.617 231.935 147.232C231.935 133.846 221.152 123.064 207.767 123.064C194.382 123.064 183.599 133.846 183.599 147.232Z" fill="#E2E2E2"/>
<path d="M300.461 102.862L286.332 154.048L273.814 102.862H252.248L276.045 191.354H293.272L308.269 143.39L323.141 191.354H340.245L365.281 102.862H343.839L330.082 154.048L316.945 102.862H300.461Z" fill="#E2E2E2"/>
<path d="M634.815 186.148H688.186V193.708H627.255V105.216H634.815V186.148Z" fill="#E2E2E2"/>
<path d="M688.186 169.417H651.299V105.216L643.738 105.216V176.977L688.186 176.974V169.417Z" fill="#E2E2E2"/>
<path d="M488.937 113.557V105.589H520.73C525.228 105.589 529.244 106.649 532.779 108.77C536.291 110.869 539.065 113.835 541.1 117.669C543.113 121.503 544.12 126.001 544.12 131.163C544.12 136.326 543.113 140.824 541.1 144.658C539.065 148.492 536.291 151.469 532.779 153.59C529.244 155.689 525.228 156.738 520.73 156.738H488.937V148.77H520.088C523.3 148.77 526.16 148.063 528.666 146.65C531.151 145.236 533.111 143.223 534.546 140.609C535.959 137.975 536.666 134.826 536.666 131.163C536.666 127.501 535.959 124.352 534.546 121.718C533.111 119.083 531.151 117.07 528.666 115.677C526.16 114.264 523.3 113.557 520.088 113.557H488.937Z" fill="#E2E2E2"/>
<path d="M602.688 105.585L610.656 105.589L610.636 169.569C610.634 174.197 609.572 178.329 607.45 181.965C605.349 185.579 602.382 188.431 598.547 190.523C594.712 192.593 590.213 193.627 585.051 193.625C579.889 193.623 575.391 192.585 571.558 190.511C567.725 188.416 564.749 185.56 562.63 181.945C560.533 178.308 559.485 174.175 559.487 169.546L559.488 105.582L567.456 105.586L567.455 168.889C567.454 172.195 568.159 175.137 569.572 177.717C570.984 180.274 572.997 182.291 575.609 183.769C578.243 185.225 581.392 185.954 585.055 185.955C588.717 185.957 591.866 185.231 594.501 183.777C597.137 182.302 599.151 180.286 600.544 177.73C601.959 175.152 602.667 172.21 602.669 168.904L602.688 105.585Z" fill="#E2E2E2"/>
<path d="M438.827 144.486H458.407V151.396H438.827V144.486Z" fill="#E2E2E2"/>
<path d="M487.201 105.613H495.264V194.3H487.201V105.613Z" fill="#E2E2E2"/>
<path d="M61.62 147.941H77.169V174.432H61.62V147.941Z" fill="#E2E2E2"/>
</g>
<g filter="url(#filter4_b_1_272)">
<path d="M412.701 617.415C406.81 619.892 401.821 624.117 398.407 629.518C394.993 634.92 393.317 641.239 393.607 647.623C393.897 654.007 396.138 660.148 400.028 665.219C403.918 670.289 409.269 674.044 415.36 675.977C421.451 677.91 427.989 677.929 434.091 676.03C440.192 674.131 445.565 670.406 449.483 665.358C453.401 660.309 455.677 654.181 456.003 647.799C456.328 641.417 454.689 635.088 451.305 629.667L443.886 634.298C446.323 638.201 447.503 642.758 447.269 647.353C447.034 651.948 445.396 656.361 442.574 659.995C439.753 663.63 435.885 666.312 431.492 667.679C427.099 669.046 422.392 669.033 418.006 667.641C413.621 666.249 409.767 663.546 406.967 659.895C404.166 656.245 402.553 651.823 402.344 647.227C402.135 642.63 403.341 638.08 405.8 634.191C408.258 630.302 411.85 627.26 416.091 625.476L412.701 617.415Z" fill="#777777"/>
<path d="M447.802 600.22C447.802 596.4 442.69 591.223 439.856 589.314C437.023 587.404 433.801 586.143 430.423 585.622C427.044 585.1 423.592 585.331 420.313 586.297C417.034 587.263 414.009 588.94 411.456 591.21C408.902 593.479 406.882 596.284 405.541 599.423C404.199 602.563 403.57 605.959 403.697 609.37C403.824 612.781 404.705 616.122 406.276 619.153C407.847 622.184 437.141 675.656 439.856 677.729L447.802 677.729C445.901 676.278 413.557 618.082 412.457 615.96C411.357 613.838 410.74 611.5 410.651 609.112C410.562 606.724 411.003 604.347 411.942 602.149C412.881 599.951 414.295 597.988 416.082 596.4C417.87 594.811 419.987 593.637 422.282 592.96C424.578 592.284 426.994 592.123 429.359 592.488C431.724 592.853 433.979 593.736 435.963 595.072C437.946 596.409 439.609 598.167 440.833 600.22H447.802Z" fill="#777777"/>
<path d="M45.8574 606.543C53.6655 606.543 60.4822 610.262 64.944 615.963L82.2954 604.065C73.8676 592.662 60.4822 585.35 45.4856 585.35C20.326 585.35 0 605.676 0 630.835C0 655.995 20.326 676.321 45.4856 676.321C60.7111 676.321 74.1665 668.877 82.4184 657.423V625.754H47.7165V642.238H67.0509C62.9609 649.798 55.0289 654.879 45.8574 654.879C32.472 654.879 21.6893 644.097 21.6893 630.711C21.6893 617.326 32.472 606.543 45.8574 606.543Z" fill="#777777"/>
<path fill-rule="evenodd" clip-rule="evenodd" d="M94.4898 674.833H116.055V642.114L136.753 674.833H160.301L137.992 640.379C148.527 636.784 155.963 627.489 155.963 614.228C155.963 596.876 143.446 586.341 127.581 586.341H94.4898V674.833ZM125.598 623.027H116.055V605.304H125.598C131.052 605.304 134.522 609.022 134.522 614.228C134.522 619.433 131.795 623.027 125.598 623.027Z" fill="#777777"/>
<path fill-rule="evenodd" clip-rule="evenodd" d="M253.253 630.835C253.253 655.995 232.927 676.321 207.767 676.321C182.607 676.321 162.281 655.995 162.281 630.835C162.281 605.676 182.607 585.35 207.767 585.35C232.927 585.35 253.253 605.676 253.253 630.835ZM183.599 630.711C183.599 644.097 194.382 654.879 207.767 654.879C221.152 654.879 231.935 644.097 231.935 630.711C231.935 617.326 221.152 606.543 207.767 606.543C194.382 606.543 183.599 617.326 183.599 630.711Z" fill="#777777"/>
<path d="M300.461 586.341L286.332 637.528L273.814 586.341H252.248L276.045 674.833H293.272L308.269 626.869L323.141 674.833H340.245L365.281 586.341H343.839L330.082 637.528L316.945 586.341H300.461Z" fill="#777777"/>
<path d="M634.815 669.628H688.186V677.188H627.255V588.696H634.815V669.628Z" fill="#777777"/>
<path d="M688.186 652.896H651.299V588.696L643.738 588.696V660.457L688.186 660.454V652.896Z" fill="#777777"/>
<path d="M488.937 597.037V589.069H520.73C525.228 589.069 529.244 590.129 532.779 592.249C536.291 594.348 539.065 597.315 541.1 601.149C543.113 604.983 544.12 609.481 544.12 614.643C544.12 619.805 543.113 624.303 541.1 628.137C539.065 631.972 536.291 634.949 532.779 637.069C529.244 639.168 525.228 640.218 520.73 640.218H488.937V632.25H520.088C523.3 632.25 526.16 631.543 528.666 630.129C531.151 628.716 533.111 626.702 534.546 624.089C535.959 621.455 536.666 618.306 536.666 614.643C536.666 610.981 535.959 607.832 534.546 605.197C533.111 602.563 531.151 600.549 528.666 599.157C526.16 597.743 523.3 597.037 520.088 597.037H488.937Z" fill="#777777"/>
<path d="M602.688 589.065L610.656 589.069L610.636 653.049C610.634 657.677 609.572 661.809 607.45 665.445C605.349 669.058 602.382 671.911 598.547 674.003C594.712 676.073 590.213 677.107 585.051 677.105C579.889 677.103 575.391 676.065 571.558 673.991C567.725 671.896 564.749 669.04 562.63 665.425C560.533 661.787 559.485 657.655 559.487 653.026L559.488 589.062L567.456 589.066L567.455 652.369C567.454 655.675 568.159 658.617 569.572 661.196C570.984 663.754 572.997 665.771 575.609 667.249C578.243 668.705 581.392 669.433 585.055 669.435C588.717 669.437 591.866 668.711 594.501 667.257C597.137 665.782 599.151 663.766 600.544 661.21C601.959 658.632 602.667 655.69 602.669 652.384L602.688 589.065Z" fill="#777777"/>
<path d="M438.827 627.965H458.407V634.876H438.827V627.965Z" fill="#777777"/>
<path d="M487.201 589.093H495.264V677.78H487.201V589.093Z" fill="#777777"/>
<path d="M61.62 631.421H77.169V657.912H61.62V631.421Z" fill="#777777"/>
</g>
<g filter="url(#filter5_b_1_272)">
<path d="M412.701 496.545C406.81 499.022 401.821 503.247 398.407 508.648C394.993 514.05 393.317 520.369 393.607 526.753C393.897 533.137 396.138 539.278 400.028 544.349C403.918 549.419 409.269 553.174 415.36 555.107C421.451 557.04 427.989 557.059 434.091 555.16C440.192 553.261 445.565 549.536 449.483 544.488C453.401 539.439 455.677 533.311 456.003 526.929C456.328 520.547 454.689 514.218 451.305 508.797L443.886 513.428C446.323 517.331 447.503 521.888 447.269 526.483C447.034 531.078 445.396 535.491 442.574 539.125C439.753 542.76 435.885 545.442 431.492 546.809C427.099 548.176 422.392 548.163 418.006 546.771C413.621 545.379 409.767 542.676 406.967 539.025C404.166 535.375 402.553 530.953 402.344 526.357C402.135 521.76 403.341 517.21 405.8 513.321C408.258 509.432 411.85 506.39 416.091 504.606L412.701 496.545Z" fill="#919191"/>
<path d="M447.802 479.35C447.802 475.53 442.69 470.353 439.856 468.444C437.023 466.534 433.801 465.273 430.423 464.752C427.044 464.23 423.592 464.461 420.313 465.427C417.034 466.393 414.009 468.07 411.456 470.34C408.902 472.609 406.882 475.414 405.541 478.553C404.199 481.693 403.57 485.09 403.697 488.5C403.824 491.911 404.705 495.252 406.276 498.283C407.847 501.315 437.141 554.786 439.856 556.859L447.802 556.859C445.901 555.408 413.557 497.212 412.457 495.09C411.357 492.968 410.74 490.63 410.651 488.242C410.562 485.854 411.003 483.477 411.942 481.279C412.881 479.081 414.295 477.118 416.082 475.53C417.87 473.941 419.987 472.767 422.282 472.091C424.578 471.414 426.994 471.253 429.359 471.618C431.724 471.983 433.979 472.866 435.963 474.202C437.946 475.539 439.609 477.297 440.833 479.35H447.802Z" fill="#919191"/>
<path d="M45.8574 485.673C53.6655 485.673 60.4822 489.392 64.944 495.093L82.2954 483.195C73.8676 471.792 60.4822 464.48 45.4856 464.48C20.326 464.48 0 484.806 0 509.965C0 535.125 20.326 555.451 45.4856 555.451C60.7111 555.451 74.1665 548.007 82.4184 536.553V504.884H47.7165V521.368H67.0509C62.9609 528.928 55.0289 534.009 45.8574 534.009C32.472 534.009 21.6893 523.227 21.6893 509.841C21.6893 496.456 32.472 485.673 45.8574 485.673Z" fill="#919191"/>
<path fill-rule="evenodd" clip-rule="evenodd" d="M94.4898 553.964H116.055V521.244L136.753 553.964H160.301L137.992 519.509C148.527 515.915 155.963 506.619 155.963 493.358C155.963 476.006 143.446 465.471 127.581 465.471H94.4898V553.964ZM125.598 502.157H116.055V484.434H125.598C131.052 484.434 134.522 488.152 134.522 493.358C134.522 498.563 131.795 502.157 125.598 502.157Z" fill="#919191"/>
<path fill-rule="evenodd" clip-rule="evenodd" d="M253.253 509.965C253.253 535.125 232.927 555.451 207.767 555.451C182.607 555.451 162.281 535.125 162.281 509.965C162.281 484.806 182.607 464.48 207.767 464.48C232.927 464.48 253.253 484.806 253.253 509.965ZM183.599 509.841C183.599 523.227 194.382 534.009 207.767 534.009C221.152 534.009 231.935 523.227 231.935 509.841C231.935 496.456 221.152 485.673 207.767 485.673C194.382 485.673 183.599 496.456 183.599 509.841Z" fill="#919191"/>
<path d="M300.461 465.471L286.332 516.658L273.814 465.471H252.248L276.045 553.964H293.272L308.269 505.999L323.141 553.964H340.245L365.281 465.471H343.839L330.082 516.658L316.945 465.471H300.461Z" fill="#919191"/>
<path d="M634.815 548.758H688.186V556.318H627.255V467.826H634.815V548.758Z" fill="#919191"/>
<path d="M688.186 532.026H651.299V467.826L643.738 467.826V539.587L688.186 539.584V532.026Z" fill="#919191"/>
<path d="M488.937 476.167V468.199H520.73C525.228 468.199 529.244 469.259 532.779 471.379C536.291 473.479 539.065 476.445 541.1 480.279C543.113 484.113 544.12 488.611 544.12 493.773C544.12 498.935 543.113 503.433 541.1 507.268C539.065 511.102 536.291 514.079 532.779 516.199C529.244 518.299 525.228 519.348 520.73 519.348H488.937V511.38H520.088C523.3 511.38 526.16 510.673 528.666 509.26C531.151 507.846 533.111 505.832 534.546 503.219C535.959 500.585 536.666 497.436 536.666 493.773C536.666 490.111 535.959 486.962 534.546 484.327C533.111 481.693 531.151 479.679 528.666 478.287C526.16 476.873 523.3 476.167 520.088 476.167H488.937Z" fill="#919191"/>
<path d="M602.688 468.195L610.656 468.199L610.636 532.179C610.634 536.807 609.572 540.939 607.45 544.575C605.349 548.188 602.382 551.041 598.547 553.133C594.712 555.203 590.213 556.237 585.051 556.235C579.889 556.233 575.391 555.195 571.558 553.121C567.725 551.026 564.749 548.17 562.63 544.555C560.533 540.917 559.485 536.785 559.487 532.156L559.488 468.192L567.456 468.196L567.455 531.499C567.454 534.805 568.159 537.747 569.572 540.326C570.984 542.884 572.997 544.901 575.609 546.379C578.243 547.835 581.392 548.563 585.055 548.565C588.717 548.567 591.866 547.841 594.501 546.387C597.137 544.912 599.151 542.896 600.544 540.34C601.959 537.762 602.667 534.82 602.669 531.514L602.688 468.195Z" fill="#919191"/>
<path d="M438.827 507.096H458.407V514.006H438.827V507.096Z" fill="#919191"/>
<path d="M487.201 468.223H495.264V556.91H487.201V468.223Z" fill="#919191"/>
<path d="M61.62 510.551H77.169V537.042H61.62V510.551Z" fill="#919191"/>
</g>
<g filter="url(#filter6_b_1_272)">
<path d="M412.701 375.675C406.81 378.152 401.821 382.377 398.407 387.779C394.993 393.18 393.317 399.5 393.607 405.883C393.897 412.267 396.138 418.409 400.028 423.479C403.918 428.549 409.269 432.304 415.36 434.237C421.451 436.17 427.989 436.189 434.091 434.29C440.192 432.391 445.565 428.666 449.483 423.618C453.401 418.57 455.677 412.441 456.003 406.059C456.328 399.677 454.689 393.348 451.305 387.927L443.886 392.558C446.323 396.461 447.503 401.018 447.269 405.613C447.034 410.208 445.396 414.621 442.574 418.255C439.753 421.89 435.885 424.572 431.492 425.939C427.099 427.307 422.392 427.293 418.006 425.901C413.621 424.509 409.767 421.806 406.967 418.155C404.166 414.505 402.553 410.083 402.344 405.487C402.135 400.89 403.341 396.341 405.8 392.451C408.258 388.562 411.85 385.52 416.091 383.737L412.701 375.675Z" fill="#ABABAB"/>
<path d="M447.802 358.481C447.802 354.66 442.69 349.484 439.856 347.574C437.023 345.664 433.801 344.404 430.423 343.882C427.044 343.36 423.592 343.591 420.313 344.557C417.034 345.523 414.009 347.201 411.456 349.47C408.902 351.739 406.882 354.544 405.541 357.683C404.199 360.823 403.57 364.22 403.697 367.63C403.824 371.041 404.705 374.382 406.276 377.413C407.847 380.445 437.141 433.916 439.856 435.989L447.802 435.989C445.901 434.538 413.557 376.342 412.457 374.22C411.357 372.098 410.74 369.76 410.651 367.372C410.562 364.985 411.003 362.607 411.942 360.409C412.881 358.212 414.295 356.248 416.082 354.66C417.87 353.071 419.987 351.897 422.282 351.221C424.578 350.544 426.994 350.383 429.359 350.748C431.724 351.113 433.979 351.996 435.963 353.333C437.946 354.669 439.609 356.427 440.833 358.481H447.802Z" fill="#ABABAB"/>
<path d="M45.8574 364.804C53.6655 364.804 60.4822 368.522 64.944 374.223L82.2954 362.325C73.8676 350.922 60.4822 343.61 45.4856 343.61C20.326 343.61 0 363.936 0 389.096C0 414.255 20.326 434.581 45.4856 434.581C60.7111 434.581 74.1665 427.137 82.4184 415.683V384.014H47.7165V400.498H67.0509C62.9609 408.058 55.0289 413.14 45.8574 413.14C32.472 413.14 21.6893 402.357 21.6893 388.972C21.6893 375.586 32.472 364.804 45.8574 364.804Z" fill="#ABABAB"/>
<path fill-rule="evenodd" clip-rule="evenodd" d="M94.4898 433.094H116.055V400.374L136.753 433.094H160.301L137.992 398.639C148.527 395.045 155.963 385.749 155.963 372.488C155.963 355.136 143.446 344.601 127.581 344.601H94.4898V433.094ZM125.598 381.287H116.055V363.564H125.598C131.052 363.564 134.522 367.282 134.522 372.488C134.522 377.693 131.795 381.287 125.598 381.287Z" fill="#ABABAB"/>
<path fill-rule="evenodd" clip-rule="evenodd" d="M253.253 389.096C253.253 414.255 232.927 434.581 207.767 434.581C182.607 434.581 162.281 414.255 162.281 389.096C162.281 363.936 182.607 343.61 207.767 343.61C232.927 343.61 253.253 363.936 253.253 389.096ZM183.599 388.972C183.599 402.357 194.382 413.14 207.767 413.14C221.152 413.14 231.935 402.357 231.935 388.972C231.935 375.586 221.152 364.804 207.767 364.804C194.382 364.804 183.599 375.586 183.599 388.972Z" fill="#ABABAB"/>
<path d="M300.461 344.601L286.332 395.788L273.814 344.601H252.248L276.045 433.094H293.272L308.269 385.13L323.141 433.094H340.245L365.281 344.601H343.839L330.082 395.788L316.945 344.601H300.461Z" fill="#ABABAB"/>
<path d="M634.815 427.888H688.186V435.448H627.255V346.956H634.815V427.888Z" fill="#ABABAB"/>
<path d="M688.186 411.157H651.299V346.956L643.738 346.956V418.717L688.186 418.714V411.157Z" fill="#ABABAB"/>
<path d="M488.937 355.297V347.329H520.73C525.228 347.329 529.244 348.389 532.779 350.51C536.291 352.609 539.065 355.575 541.1 359.409C543.113 363.243 544.12 367.741 544.12 372.903C544.12 378.066 543.113 382.564 541.1 386.398C539.065 390.232 536.291 393.209 532.779 395.33C529.244 397.429 525.228 398.478 520.73 398.478H488.937V390.51H520.088C523.3 390.51 526.16 389.803 528.666 388.39C531.151 386.976 533.111 384.963 534.546 382.349C535.959 379.715 536.666 376.566 536.666 372.903C536.666 369.241 535.959 366.092 534.546 363.458C533.111 360.823 531.151 358.81 528.666 357.417C526.16 356.004 523.3 355.297 520.088 355.297H488.937Z" fill="#ABABAB"/>
<path d="M602.688 347.325L610.656 347.329L610.636 411.309C610.634 415.937 609.572 420.069 607.45 423.705C605.349 427.319 602.382 430.171 598.547 432.263C594.712 434.333 590.213 435.367 585.051 435.365C579.889 435.363 575.391 434.325 571.558 432.251C567.725 430.156 564.749 427.3 562.63 423.685C560.533 420.048 559.485 415.915 559.487 411.286L559.488 347.322L567.456 347.326L567.455 410.629C567.454 413.935 568.159 416.877 569.572 419.457C570.984 422.014 572.997 424.031 575.609 425.509C578.243 426.965 581.392 427.694 585.055 427.695C588.717 427.697 591.866 426.971 594.501 425.517C597.137 424.042 599.151 422.026 600.544 419.47C601.959 416.892 602.667 413.95 602.669 410.644L602.688 347.325Z" fill="#ABABAB"/>
<path d="M438.827 386.226H458.407V393.136H438.827V386.226Z" fill="#ABABAB"/>
<path d="M487.201 347.353H495.264V436.04H487.201V347.353Z" fill="#ABABAB"/>
<path d="M61.62 389.681H77.169V416.172H61.62V389.681Z" fill="#ABABAB"/>
</g>
<g filter="url(#filter7_b_1_272)">
<path d="M412.701 254.805C406.81 257.282 401.821 261.507 398.407 266.909C394.993 272.31 393.317 278.63 393.607 285.013C393.897 291.397 396.138 297.539 400.028 302.609C403.918 307.679 409.269 311.434 415.36 313.367C421.451 315.3 427.989 315.319 434.091 313.42C440.192 311.521 445.565 307.796 449.483 302.748C453.401 297.7 455.677 291.571 456.003 285.189C456.328 278.807 454.689 272.478 451.305 267.057L443.886 271.688C446.323 275.591 447.503 280.148 447.269 284.743C447.034 289.338 445.396 293.751 442.574 297.385C439.753 301.02 435.885 303.702 431.492 305.069C427.099 306.437 422.392 306.423 418.006 305.031C413.621 303.639 409.767 300.936 406.967 297.285C404.166 293.635 402.553 289.213 402.344 284.617C402.135 280.02 403.341 275.471 405.8 271.581C408.258 267.692 411.85 264.65 416.091 262.867L412.701 254.805Z" fill="#C6C6C6"/>
<path d="M447.802 237.611C447.802 233.79 442.69 228.614 439.856 226.704C437.023 224.794 433.801 223.534 430.423 223.012C427.044 222.49 423.592 222.721 420.313 223.687C417.034 224.653 414.009 226.331 411.456 228.6C408.902 230.869 406.882 233.674 405.541 236.813C404.199 239.953 403.57 243.35 403.697 246.76C403.824 250.171 404.705 253.512 406.276 256.543C407.847 259.575 437.141 313.046 439.856 315.119L447.802 315.119C445.901 313.668 413.557 255.472 412.457 253.35C411.357 251.228 410.74 248.89 410.651 246.502C410.562 244.115 411.003 241.737 411.942 239.539C412.881 237.341 414.295 235.378 416.082 233.79C417.87 232.201 419.987 231.027 422.282 230.351C424.578 229.674 426.994 229.513 429.359 229.878C431.724 230.243 433.979 231.126 435.963 232.463C437.946 233.799 439.609 235.557 440.833 237.611H447.802Z" fill="#C6C6C6"/>
<path d="M45.8574 243.933C53.6655 243.933 60.4822 247.652 64.944 253.353L82.2954 241.455C73.8676 230.052 60.4822 222.74 45.4856 222.74C20.326 222.74 0 243.066 0 268.226C0 293.385 20.326 313.711 45.4856 313.711C60.7111 313.711 74.1665 306.267 82.4184 294.813V263.144H47.7165V279.628H67.0509C62.9609 287.188 55.0289 292.27 45.8574 292.27C32.472 292.27 21.6893 281.487 21.6893 268.102C21.6893 254.716 32.472 243.933 45.8574 243.933Z" fill="#C6C6C6"/>
<path fill-rule="evenodd" clip-rule="evenodd" d="M94.4898 312.224H116.055V279.504L136.753 312.224H160.301L137.992 277.769C148.527 274.175 155.963 264.879 155.963 251.618C155.963 234.266 143.446 223.731 127.581 223.731H94.4898V312.224ZM125.598 260.417H116.055V242.694H125.598C131.052 242.694 134.522 246.412 134.522 251.618C134.522 256.823 131.795 260.417 125.598 260.417Z" fill="#C6C6C6"/>
<path fill-rule="evenodd" clip-rule="evenodd" d="M253.253 268.226C253.253 293.385 232.927 313.711 207.767 313.711C182.607 313.711 162.281 293.385 162.281 268.226C162.281 243.066 182.607 222.74 207.767 222.74C232.927 222.74 253.253 243.066 253.253 268.226ZM183.599 268.102C183.599 281.487 194.382 292.27 207.767 292.27C221.152 292.27 231.935 281.487 231.935 268.102C231.935 254.716 221.152 243.933 207.767 243.933C194.382 243.933 183.599 254.716 183.599 268.102Z" fill="#C6C6C6"/>
<path d="M300.461 223.731L286.332 274.918L273.814 223.731H252.248L276.045 312.224H293.272L308.269 264.259L323.141 312.224H340.245L365.281 223.731H343.839L330.082 274.918L316.945 223.731H300.461Z" fill="#C6C6C6"/>
<path d="M634.815 307.018H688.186V314.578H627.255V226.086H634.815V307.018Z" fill="#C6C6C6"/>
<path d="M688.186 290.286H651.299V226.086L643.738 226.086V297.847L688.186 297.844V290.286Z" fill="#C6C6C6"/>
<path d="M488.937 234.427V226.459H520.73C525.228 226.459 529.244 227.519 532.779 229.639C536.291 231.739 539.065 234.705 541.1 238.539C543.113 242.373 544.12 246.871 544.12 252.033C544.12 257.195 543.113 261.694 541.1 265.528C539.065 269.362 536.291 272.339 532.779 274.459C529.244 276.559 525.228 277.608 520.73 277.608H488.937V269.64H520.088C523.3 269.64 526.16 268.933 528.666 267.52C531.151 266.106 533.111 264.093 534.546 261.479C535.959 258.845 536.666 255.696 536.666 252.033C536.666 248.371 535.959 245.222 534.546 242.587C533.111 239.953 531.151 237.939 528.666 236.547C526.16 235.134 523.3 234.427 520.088 234.427H488.937Z" fill="#C6C6C6"/>
<path d="M602.688 226.455L610.656 226.459L610.636 290.439C610.634 295.067 609.572 299.199 607.45 302.835C605.349 306.448 602.382 309.301 598.547 311.393C594.712 313.463 590.213 314.497 585.051 314.495C579.889 314.493 575.391 313.455 571.558 311.381C567.725 309.286 564.749 306.43 562.63 302.815C560.533 299.178 559.485 295.045 559.487 290.416L559.488 226.452L567.456 226.456L567.455 289.759C567.454 293.065 568.159 296.007 569.572 298.587C570.984 301.144 572.997 303.161 575.609 304.639C578.243 306.095 581.392 306.823 585.055 306.825C588.717 306.827 591.866 306.101 594.501 304.647C597.137 303.172 599.151 301.156 600.544 298.6C601.959 296.022 602.667 293.08 602.669 289.774L602.688 226.455Z" fill="#C6C6C6"/>
<path d="M438.827 265.356H458.407V272.266H438.827V265.356Z" fill="#C6C6C6"/>
<path d="M487.201 226.483H495.264V315.17H487.201V226.483Z" fill="#C6C6C6"/>
<path d="M61.62 268.811H77.169V295.302H61.62V268.811Z" fill="#C6C6C6"/>
</g>
<g filter="url(#filter8_b_1_272)">
<path d="M412.701 13.0649C406.81 15.5422 401.821 19.7668 398.407 25.1686C394.993 30.5705 393.317 36.8896 393.607 43.2735C393.897 49.6573 396.138 55.7986 400.028 60.8688C403.918 65.939 409.269 69.694 415.36 71.6272C421.451 73.5604 427.989 73.5788 434.091 71.6798C440.192 69.7809 445.565 66.056 449.483 61.0078C453.401 55.9596 455.677 49.831 456.003 43.4489C456.328 37.0668 454.689 30.7383 451.305 25.3173L443.886 29.9483C446.323 33.8514 447.503 38.4079 447.269 43.003C447.034 47.5982 445.396 52.0108 442.574 55.6455C439.753 59.2802 435.885 61.9621 431.492 63.3293C427.099 64.6966 422.392 64.6833 418.006 63.2914C413.621 61.8995 409.767 59.1959 406.967 55.5454C404.166 51.8949 402.553 47.4731 402.344 42.8768C402.135 38.2804 403.341 33.7306 405.8 29.8413C408.258 25.9519 411.85 22.9103 416.091 21.1266L412.701 13.0649Z" fill="white"/>
<path d="M447.802 -4.12943C447.802 -7.95028 442.69 -13.1264 439.856 -15.036C437.023 -16.9457 433.801 -18.2064 430.423 -18.7279C427.044 -19.2495 423.592 -19.019 420.313 -18.053C417.034 -17.087 414.009 -15.4094 411.456 -13.1401C408.902 -10.8709 406.882 -8.06614 405.541 -4.9266C404.199 -1.78705 403.57 1.60967 403.697 5.02051C403.824 8.43134 404.705 11.772 406.276 14.8033C407.847 17.8347 437.141 71.3059 439.856 73.3794L447.802 73.3794C445.901 71.9279 413.557 13.7321 412.457 11.6101C411.357 9.48819 410.74 7.14976 410.651 4.76217C410.562 2.37459 411.003 -0.0031147 411.942 -2.2008C412.881 -4.39848 414.295 -6.36181 416.082 -7.95028C417.87 -9.53876 419.987 -10.7131 422.282 -11.3893C424.578 -12.0655 426.994 -12.2268 429.359 -11.8617C431.724 -11.4966 433.979 -10.6141 435.963 -9.27741C437.946 -7.94068 439.609 -6.18275 440.833 -4.12943H447.802Z" fill="white"/>
<path d="M45.8574 2.19355C53.6655 2.19355 60.4822 5.91171 64.944 11.6129L82.2954 -0.285233C73.8676 -11.6876 60.4822 -19 45.4856 -19C20.326 -19 0 1.32599 0 26.4856C0 51.6452 20.326 71.9709 45.4856 71.9709C60.7111 71.9709 74.1665 64.5273 82.4184 53.0733V21.4041H47.7165V37.8879H67.0509C62.9609 45.4482 55.0289 50.5296 45.8574 50.5296C32.472 50.5296 21.6893 39.747 21.6893 26.3616C21.6893 12.9762 32.472 2.19355 45.8574 2.19355Z" fill="white"/>
<path fill-rule="evenodd" clip-rule="evenodd" d="M94.4898 70.4837H116.055V37.764L136.753 70.4837H160.301L137.992 36.0289C148.527 32.4346 155.963 23.1392 155.963 9.87775C155.963 -7.47368 143.446 -18.0085 127.581 -18.0085H94.4898V70.4837ZM125.598 18.6774H116.055V0.954155H125.598C131.052 0.954155 134.522 4.67232 134.522 9.87775C134.522 15.0832 131.795 18.6774 125.598 18.6774Z" fill="white"/>
<path fill-rule="evenodd" clip-rule="evenodd" d="M253.253 26.4856C253.253 51.6452 232.927 71.9709 207.767 71.9709C182.607 71.9709 162.281 51.6452 162.281 26.4856C162.281 1.32599 182.607 -19 207.767 -19C232.927 -19 253.253 1.32599 253.253 26.4856ZM183.599 26.3616C183.599 39.747 194.382 50.5296 207.767 50.5296C221.152 50.5296 231.935 39.747 231.935 26.3616C231.935 12.9762 221.152 2.19355 207.767 2.19355C194.382 2.19355 183.599 12.9762 183.599 26.3616Z" fill="white"/>
<path d="M300.461 -18.0085L286.332 33.1783L273.814 -18.0085H252.248L276.045 70.4837H293.272L308.269 22.5195L323.141 70.4837H340.245L365.281 -18.0085H343.839L330.082 33.1783L316.945 -18.0085H300.461Z" fill="white"/>
<path d="M634.815 65.2782H688.186V72.8384H627.255V-15.6537H634.815V65.2782Z" fill="white"/>
<path d="M688.186 48.5465H651.299V-15.6537L643.738 -15.6537V56.1068L688.186 56.104V48.5465Z" fill="white"/>
<path d="M488.937 -7.31321V-15.2812H520.73C525.228 -15.2812 529.244 -14.2209 532.779 -12.1004C536.291 -10.0013 539.065 -7.03475 541.1 -3.20069C543.113 0.633375 544.12 5.13144 544.12 10.2935C544.12 15.4556 543.113 19.9536 541.1 23.7877C539.065 27.6217 536.291 30.599 532.779 32.7196C529.244 34.8187 525.228 35.8682 520.73 35.8682H488.937V27.9002H520.088C523.3 27.9002 526.16 27.1934 528.666 25.7797C531.151 24.366 533.111 22.3526 534.546 19.7394C535.959 17.1049 536.666 13.9562 536.666 10.2935C536.666 6.63079 535.959 3.48215 534.546 0.847567C533.111 -1.78701 531.151 -3.80043 528.666 -5.19269C526.16 -6.60637 523.3 -7.31321 520.088 -7.31321H488.937Z" fill="white"/>
<path d="M602.688 -15.2847L610.656 -15.2812L610.636 48.6992C610.634 53.3275 609.572 57.4594 607.45 61.095C605.349 64.7085 602.382 67.5614 598.547 69.6534C594.712 71.7234 590.213 72.7573 585.051 72.755C579.889 72.7527 575.391 71.7149 571.558 69.6414C567.725 67.546 564.749 64.6905 562.63 61.0751C560.533 57.4376 559.485 53.3048 559.487 48.6765L559.488 -15.2878L567.456 -15.2843L567.455 48.0189C567.454 51.3248 568.159 54.2673 569.572 56.8466C570.984 59.4038 572.997 61.4213 575.609 62.8991C578.243 64.3549 581.392 65.0836 585.055 65.0852C588.717 65.0868 591.866 64.3609 594.501 62.9075C597.137 61.432 599.151 59.4163 600.544 56.8603C601.959 54.2824 602.667 51.3404 602.669 48.0345L602.688 -15.2847Z" fill="white"/>
<path d="M438.827 23.6157H458.407V30.5263H438.827V23.6157Z" fill="white"/>
<path d="M487.201 -15.2567H495.264V73.43H487.201V-15.2567Z" fill="white"/>
<path d="M61.62 27.071H77.169V53.5619H61.62V27.071Z" fill="white"/>
</g>
<defs>
<filter id="filter0_b_1_272" x="-5.688" y="821.402" width="699.562" height="103.806" filterUnits="userSpaceOnUse" color-interpolation-filters="sRGB">
<feFlood flood-opacity="0" result="BackgroundImageFix"/>
<feGaussianBlur in="BackgroundImageFix" stdDeviation="2.844"/>
<feComposite in2="SourceAlpha" operator="in" result="effect1_backgroundBlur_1_272"/>
<feBlend mode="normal" in="SourceGraphic" in2="effect1_backgroundBlur_1_272" result="shape"/>
</filter>
<filter id="filter1_b_1_272" x="-5.688" y="942.272" width="699.562" height="103.806" filterUnits="userSpaceOnUse" color-interpolation-filters="sRGB">
<feFlood flood-opacity="0" result="BackgroundImageFix"/>
<feGaussianBlur in="BackgroundImageFix" stdDeviation="2.844"/>
<feComposite in2="SourceAlpha" operator="in" result="effect1_backgroundBlur_1_272"/>
<feBlend mode="normal" in="SourceGraphic" in2="effect1_backgroundBlur_1_272" result="shape"/>
</filter>
<filter id="filter2_b_1_272" x="-5.688" y="700.532" width="699.562" height="103.806" filterUnits="userSpaceOnUse" color-interpolation-filters="sRGB">
<feFlood flood-opacity="0" result="BackgroundImageFix"/>
<feGaussianBlur in="BackgroundImageFix" stdDeviation="2.844"/>
<feComposite in2="SourceAlpha" operator="in" result="effect1_backgroundBlur_1_272"/>
<feBlend mode="normal" in="SourceGraphic" in2="effect1_backgroundBlur_1_272" result="shape"/>
</filter>
<filter id="filter3_b_1_272" x="-5.688" y="96.182" width="699.562" height="103.806" filterUnits="userSpaceOnUse" color-interpolation-filters="sRGB">
<feFlood flood-opacity="0" result="BackgroundImageFix"/>
<feGaussianBlur in="BackgroundImageFix" stdDeviation="2.844"/>
<feComposite in2="SourceAlpha" operator="in" result="effect1_backgroundBlur_1_272"/>
<feBlend mode="normal" in="SourceGraphic" in2="effect1_backgroundBlur_1_272" result="shape"/>
</filter>
<filter id="filter4_b_1_272" x="-5.688" y="579.662" width="699.562" height="103.806" filterUnits="userSpaceOnUse" color-interpolation-filters="sRGB">
<feFlood flood-opacity="0" result="BackgroundImageFix"/>
<feGaussianBlur in="BackgroundImageFix" stdDeviation="2.844"/>
<feComposite in2="SourceAlpha" operator="in" result="effect1_backgroundBlur_1_272"/>
<feBlend mode="normal" in="SourceGraphic" in2="effect1_backgroundBlur_1_272" result="shape"/>
</filter>
<filter id="filter5_b_1_272" x="-5.688" y="458.792" width="699.562" height="103.806" filterUnits="userSpaceOnUse" color-interpolation-filters="sRGB">
<feFlood flood-opacity="0" result="BackgroundImageFix"/>
<feGaussianBlur in="BackgroundImageFix" stdDeviation="2.844"/>
<feComposite in2="SourceAlpha" operator="in" result="effect1_backgroundBlur_1_272"/>
<feBlend mode="normal" in="SourceGraphic" in2="effect1_backgroundBlur_1_272" result="shape"/>
</filter>
<filter id="filter6_b_1_272" x="-5.688" y="337.922" width="699.562" height="103.806" filterUnits="userSpaceOnUse" color-interpolation-filters="sRGB">
<feFlood flood-opacity="0" result="BackgroundImageFix"/>
<feGaussianBlur in="BackgroundImageFix" stdDeviation="2.844"/>
<feComposite in2="SourceAlpha" operator="in" result="effect1_backgroundBlur_1_272"/>
<feBlend mode="normal" in="SourceGraphic" in2="effect1_backgroundBlur_1_272" result="shape"/>
</filter>
<filter id="filter7_b_1_272" x="-5.688" y="217.052" width="699.562" height="103.806" filterUnits="userSpaceOnUse" color-interpolation-filters="sRGB">
<feFlood flood-opacity="0" result="BackgroundImageFix"/>
<feGaussianBlur in="BackgroundImageFix" stdDeviation="2.844"/>
<feComposite in2="SourceAlpha" operator="in" result="effect1_backgroundBlur_1_272"/>
<feBlend mode="normal" in="SourceGraphic" in2="effect1_backgroundBlur_1_272" result="shape"/>
</filter>
<filter id="filter8_b_1_272" x="-5.688" y="-24.688" width="699.562" height="103.806" filterUnits="userSpaceOnUse" color-interpolation-filters="sRGB">
<feFlood flood-opacity="0" result="BackgroundImageFix"/>
<feGaussianBlur in="BackgroundImageFix" stdDeviation="2.844"/>
<feComposite in2="SourceAlpha" operator="in" result="effect1_backgroundBlur_1_272"/>
<feBlend mode="normal" in="SourceGraphic" in2="effect1_backgroundBlur_1_272" result="shape"/>
</filter>
</defs>
</svg>
